<?xml version="1.0" standalone="no"?>
<!DOCTYPE svg PUBLIC "-//W3C//DTD SVG 20010904//EN"
 "http://www.w3.org/TR/2001/REC-SVG-20010904/DTD/svg10.dtd">
<svg version="1.0" xmlns="http://www.w3.org/2000/svg"
 width="1179.000000pt" height="1179.000000pt" viewBox="0 0 1179.000000 1179.000000"
 preserveAspectRatio="xMidYMid meet">
<metadata>
Created by potrace 1.11, written by Peter Selinger 2001-2013
</metadata>
<g transform="translate(0.000000,1179.000000) scale(0.100000,-0.100000)"
fill="#000000" stroke="none">
<path d="M2225 10064 c-16 -2 -77 -9 -135 -15 -215 -23 -458 -99 -625 -196
-323 -186 -523 -462 -616 -850 -50 -210 -51 -223 -59 -1063 -6 -638 -11 -816
-23 -903 -56 -381 -181 -577 -431 -679 -75 -31 -210 -58 -287 -58 l-49 0 0
-389 0 -389 96 -12 c207 -26 337 -82 449 -195 107 -106 165 -233 205 -444 32
-171 40 -368 40 -1036 0 -668 6 -779 50 -971 89 -385 282 -686 558 -872 137
-91 329 -169 526 -211 113 -25 356 -51 471 -51 l85 0 0 404 0 403 -82 6 c-157
12 -315 79 -418 178 -93 89 -151 207 -191 384 -21 97 -22 122 -29 940 -8 890
-9 918 -59 1129 -75 316 -236 547 -485 697 -30 19 -56 36 -56 39 0 3 35 28 77
57 242 160 387 370 463 668 51 200 52 237 60 1125 5 515 12 855 18 888 22 110
55 210 94 292 92 190 272 300 521 317 l87 6 0 403 0 404 -112 -1 c-62 -1 -126
-4 -143 -5z"/>
<path d="M9320 9666 l0 -403 83 -6 c309 -24 503 -190 581 -499 41 -160 46
-271 46 -1012 0 -740 6 -867 49 -1062 71 -328 233 -566 493 -727 37 -23 68
-44 67 -47 0 -3 -39 -30 -86 -60 -223 -143 -382 -374 -458 -662 -56 -216 -58
-236 -65 -1138 -8 -910 -8 -908 -68 -1078 -16 -44 -44 -106 -63 -137 -40 -67
-136 -161 -205 -199 -75 -42 -214 -85 -298 -93 l-76 -6 0 -403 0 -404 88 0
c207 0 500 48 677 110 491 173 790 561 891 1153 13 75 18 237 24 882 6 633 11
811 23 898 72 490 267 698 700 742 l67 7 0 389 0 389 -49 0 c-77 0 -212 27
-287 58 -283 115 -411 354 -444 832 -5 80 -10 433 -10 785 0 680 -5 781 -51
991 -40 186 -122 385 -212 519 -61 89 -196 224 -295 295 -98 70 -268 155 -387
194 -174 56 -434 96 -637 96 l-98 0 0 -404z"/>
<path d="M3571 7407 c-1 -609 -3 -588 67 -660 197 -203 677 -340 1472 -418
268 -27 985 -38 1272 -20 576 36 1018 108 1360 222 146 49 237 93 318 155 77
58 116 106 129 160 15 57 15 1090 1 1099 -5 3 -10 0 -10 -8 0 -21 -75 -103
-126 -138 -251 -173 -793 -300 -1539 -361 -202 -16 -1061 -17 -1260 0 -753 63
-1289 188 -1544 361 -54 37 -84 69 -128 137 -9 15 -12 -101 -12 -529z"/>
<path d="M3597 6384 c-13 -13 -8 -1050 5 -1102 9 -38 25 -60 78 -112 96 -94
212 -151 454 -224 441 -134 1066 -206 1781 -206 1052 0 1938 169 2207 419 104
97 99 57 96 691 l-3 545 -27 -47 c-102 -173 -542 -330 -1173 -418 -662 -92
-1565 -92 -2215 0 -649 92 -1088 251 -1178 427 -10 18 -21 31 -25 27z"/>
<path d="M3597 4873 c-12 -12 -8 -1050 4 -1098 51 -204 533 -387 1259 -479
1303 -165 2892 10 3271 362 94 87 90 54 87 682 l-3 545 -27 -46 c-192 -326
-1452 -545 -2761 -479 -544 28 -1073 115 -1405 231 -201 71 -363 175 -404 259
-8 16 -18 27 -21 23z"/>
</g>
</svg>
