<svg id="Isolation_Mode" data-name="Isolation Mode" xmlns="http://www.w3.org/2000/svg" viewBox="0 0 1888.68 3309.34"><defs><style>.cls-1{fill:#1578bd;}.cls-2{fill:#1d1d1b;}</style></defs><path class="cls-1" d="M2627.64,1124.67c-26.68-24.1-65.18-41.22-118.29-41.22-4.67,0-9.47.13-14.47.4-28.47,1.56-107.61,27-149.57,50.79-108.28,61.52-239.89,157.72-252,266.72-8.71,78.36,1.08,112.53,7.53,135.13,3.88,13.51,3.88,13.51-3.66,30.49-6.67,15-16.28,29.58-26.46,45-29.85,45.35-70.74,107.46-24.27,192.65,12.18,22.35,23.46,39.4,33.41,54.45,27.09,41,42,63.54,47,157.31,8,153.06,71.59,189.39,138.88,227.84,7.5,4.27,15.23,8.7,23.21,13.48,16,9.63,23.12,21.24,35.32,42.63,23.12,40.58,54.78,96.16,177.11,113.63a173.54,173.54,0,0,0,24.88,1.63c40.56,0,75.1-11.56,101.44-32.07Z" transform="translate(-1683.26 -736.39)"/><path class="cls-1" d="M3156.38,1536.49c6.48-22.6,16.24-56.76,7.53-135.13-12.09-109-143.73-205.19-252-266.71-41.95-23.85-121.08-49.24-149.56-50.8-5-.27-9.79-.4-14.45-.4-53.7,0-92.51,17.5-119.21,42.15l-1-.93v1258.9l1-.76c26.43,21,61.33,32.83,102.4,32.83a174.83,174.83,0,0,0,24.36-1.55c122.83-17.55,154.5-73.12,177.62-113.7,12.2-21.39,19.31-33,35.34-42.64l8.92-5.31c72.93-43.54,148.38-88.56,156.91-251,3.21-60.75,0-89.27-2-106.31a45,45,0,0,0-1.11-6.89c1.36-4.83,11.58-23.57,19.77-38.6,47.26-86.58,50.63-189.61,9.24-282.67C3152.5,1550,3152.5,1550,3156.38,1536.49Z" transform="translate(-1683.26 -736.39)"/><path class="cls-2" d="M3160,1567c-7.54-17-7.54-17-3.66-30.49,6.48-22.6,16.24-56.76,7.53-135.13-12.09-109-143.73-205.19-252-266.71-41.95-23.85-121.08-49.24-149.56-50.8-5-.27-9.79-.4-14.45-.4-53.7,0-92.51,17.5-119.21,42.15-26.71-24.59-65.53-42.15-119.32-42.15-4.67,0-9.47.13-14.47.4-28.47,1.56-107.61,27-149.57,50.79-108.28,61.52-239.89,157.72-252,266.72-8.71,78.36,1.08,112.53,7.53,135.13,3.88,13.51,3.88,13.51-3.66,30.49-6.67,15-16.28,29.58-26.46,45-29.85,45.35-70.74,107.46-24.27,192.65,12.18,22.35,23.46,39.4,33.41,54.45,27.09,41,42,63.54,47,157.31,8,153.06,71.59,189.39,138.88,227.84,7.5,4.27,15.23,8.7,23.21,13.48,16,9.63,23.12,21.24,35.32,42.63,23.12,40.58,54.78,96.16,177.11,113.63a173.54,173.54,0,0,0,24.88,1.63c41.06,0,76-11.84,102.41-32.83,26.43,21,61.33,32.83,102.4,32.83a174.83,174.83,0,0,0,24.36-1.55c122.83-17.55,154.5-73.12,177.62-113.7,12.2-21.39,19.31-33,35.34-42.64l8.92-5.31c72.93-43.54,148.38-88.56,156.91-251,3.21-60.75,0-89.27-2-106.31a45,45,0,0,0-1.11-6.89c1.36-4.83,11.58-23.57,19.77-38.6C3198.06,1763.07,3201.43,1660,3160,1567ZM2526.2,2318.93a85.56,85.56,0,0,1-10.7-.59c-75.93-10.84-88.4-32.71-107.27-65.83-13.84-24.31-31.09-54.58-69.58-77.69-8.59-5.13-16.94-9.91-25-14.52-40.44-23.1-65.62-37.57-79.05-77.63,7.35-3.9,15.45-7.71,23.06-10.8a227.38,227.38,0,0,1,41.32-12.58,169.34,169.34,0,0,1,21-2.85l2.61-.14,1.32-.07.66,0h.17l.07,0c-.79-.11,1.87.29-1.74-.28l.41,0,5.72.33c0-.32,2-.4,4.32.32,9,2.17,21.48,12.4,34.12,23.46,6.4,5.56,13.18,11.38,20.34,16.91,7.27,5,14.49,12.24,26.64,16.73,11.53,4.15,23.63,3.32,33.2.82,9.73-2.46,17.95-6.29,25.41-9.55,7.06-3.43,15.19-5.61,15.83-5.23.11,0,.19-.11.32,0-.07-.12.47.33-.06-.3l1.21,1a3,3,0,0,1,1.59,1.32c1.13,1.59,1.76,4.81,1.62,8.48-.15,7.4-2.17,16-2.87,24.74s.26,18.63,6.12,25c-3.61-7.89-1.76-16.06,1.14-23.43,2.93-7.56,7.15-14.59,10.22-23.6,1.43-4.49,2.73-9.84,1.62-16.34a24.78,24.78,0,0,0-4.14-9.74l-.85-1.33a22.08,22.08,0,0,0-2.42-2.37,21,21,0,0,0-5-3.24c-7.56-3.39-14-2.41-19.08-1.72a135.24,135.24,0,0,0-13.64,3.33c-16.21,5.15-30.66,7.9-38.42,2.94a16.36,16.36,0,0,1-2.83-1.88l-3.36-3-6.77-8.52c-4.73-6.18-9.24-12.7-13.94-19.59-2.95-4.09-6-8.46-9.14-12.92,1.12-.63,2.21-1.33,3.32-1.94,12.87-7.1,26.05-13.62,39.29-18.23,13.53-4.39,25.47-7.38,36.23-.56,5.44,3.33,10.26,8.82,14.53,15.08,2.17,3.11,4.19,6.43,6.63,9.67a13.62,13.62,0,0,0,4.76,4.3c2.44,1,4.55-.64,5.63-2.07-3.84,2.94-6.25-.48-7.21-4-1.21-3.48-2.12-7.25-3.28-11-2.24-7.55-5.36-15.53-11.23-22.62-5.41-7.06-15.32-12.7-24.07-14.83-9.27-2.38-18-2.64-26.54-2.59-17,.34-33.26,2.79-49.28,5.86-9.73,1.92-19.23,4.15-28.77,6.59a74.25,74.25,0,0,0-9.09-3.67l-6.55-2.15-8.95-2a236.45,236.45,0,0,0-29.06-4.26,302.48,302.48,0,0,0-57.83.93c-5.7.69-11.22,1.45-16.7,2.3-7-93.41-27.18-134.06-51.55-172.1,5.5-.13,11,0,16.51-.52a234.43,234.43,0,0,0,29.07-4.26l.49-.1c1,.48,1.91,1,2.89,1.48l-2.38-1.59h0c29.73,19.16,61.71,34.43,97.53,41.59,17.94,3.27,37.43,4.82,57.57-1.5a62.46,62.46,0,0,0,27.2-17.08,119.94,119.94,0,0,0,16.06-23c8.93-16,12-34,19-42.5,3.51-4.49,8.81-7.71,15.69-10.23,5.64-2,10.81-2.44,16,.74,5.64,3,10.39,10,19.47,15.19a20.73,20.73,0,0,0,15.85,1.67,34.62,34.62,0,0,0,12.13-6.37c13.9-12.27,17.55-29.21,21.89-44.64-6.48,14.58-13.69,30.63-26.37,38.3a24.78,24.78,0,0,1-10,3.31,10.13,10.13,0,0,1-7.57-2.18c-4.82-3.51-8.82-11.14-16.46-17.57-7.79-7-20.45-9.06-30.37-6.53-8.71,1.81-18.55,6-26.11,13.6s-11.63,16.44-15.22,23.68a150.44,150.44,0,0,1-11,19.78,81.91,81.91,0,0,1-13.62,15.56,31.44,31.44,0,0,1-15.08,6c-11.6,1.7-25.48-1-38.78-5.86-19.68-7.23-38.58-18.49-55.91-31.72,8.49-9.34,14.66-18.77,20.69-27.14,4.7-6.9,9.21-13.41,14-19.59l6.75-8.53,3.38-3a16,16,0,0,1,2.82-1.87c7.74-5,22.2-2.21,38.41,2.92a127.17,127.17,0,0,0,13.62,3.33c5.06.71,11.53,1.67,19.1-1.7a21.55,21.55,0,0,0,5-3.25,24.14,24.14,0,0,0,2.39-2.36l.88-1.33a25,25,0,0,0,4.13-9.72c1.14-6.5-.17-11.87-1.61-16.37-3.05-9-7.29-16-10.22-23.59-2.91-7.37-4.75-15.55-1.15-23.43-5.85,6.41-6.91,16.4-6.1,25s2.72,17.34,2.88,24.74c.11,3.67-.52,6.87-1.65,8.46a3.07,3.07,0,0,1-1.57,1.33l-1.23,1c.52-.63,0-.18.06-.29-.13.08-.21,0-.32,0-.64.37-8.77-1.81-15.83-5.25-7.46-3.24-15.68-7.07-25.42-9.54-9.56-2.49-21.65-3.32-33.21.85-12.15,4.49-19.34,11.7-26.62,16.71-7.16,5.54-13.92,11.36-20.34,16.93-12.64,11.06-25.12,21.28-34.11,23.44-2.31.71-4.35.64-4.33.32l-5.72.33-.4,0c3.59-.57.94-.17,1.73-.28H2215l-.66,0-1.32-.07-2.61-.14a171.26,171.26,0,0,1-21-2.85A228.17,228.17,0,0,1,2148.1,1739a249.5,249.5,0,0,1-25.76-12.3c.64-16.9,10.92-33.8,29.15-61.49,11.32-17.2,24.16-36.69,34-58.94,20.26-45.57,16.2-68.7,8.27-96.4a161.23,161.23,0,0,1-6.71-36.73c3.82,2,7.48,4.25,11.41,6.09a242.59,242.59,0,0,0,26.22,10.59c5,1.67,8.06,2.53,14.66,4.43l5.31,1.19c.85.19,1.38.19,2.09.3,6,9.24,12.17,18.2,18.74,27.06,9.82,13,20.21,25.72,32.62,37.39,6.32,5.79,13,11.42,21.42,15.9,7.92,4.28,19.05,6.74,27.79,5.14,9.12-1.33,16.78-5.14,23.51-9.23,3.4-2,6.6-4.22,9.83-6,3.08-2,7.16-2.9,8,1.86.15-1.78-.32-4.4-2.8-5.29a13.08,13.08,0,0,0-6.4,0c-4,.77-7.71,1.88-11.41,2.73-7.35,1.77-14.62,2.62-20.88,1.43-12.55-2.17-19.4-12.39-26.49-24.72-6.73-12.29-12.13-26-16.91-39.86-2.13-6.31-4.16-12.79-6.06-19.26,7.13-4.4,13.29-8.86,19.05-13.06,12.91-9.52,24.45-17.87,36.78-22.73-.23-.34,3.89-1.1,4.41-1.26a18.55,18.55,0,0,1,2.8-.5,13.89,13.89,0,0,1,5.79.66c3.82,1.21,8.4,5.19,12.92,10.93,5,5.7,8.21,12.9,18.34,20.92,5,4.38,16.27,5.83,21.62,2.48l2.76-1.53,3.78-2.38a37.45,37.45,0,0,0,5.82-5.22c6.84-7.55,9.65-15.49,13.37-22.37a53.33,53.33,0,0,1,14.72-18.38c-16.17,4.28-27.39,22.15-38.55,28.08a20,20,0,0,1-4.1,1.62l-4.57.79c-2.14-.15.13-.21-1.08-1-2.34-2.42-6.21-10.28-10.41-17.67-4.42-7.49-10.37-16.48-21-22.75a44.33,44.33,0,0,0-17.36-5.69,51.84,51.84,0,0,0-9.24-.19c-3.48.3-3.36.17-7.5.78-19.21,2.37-36.36,9.59-51.47,15.76-14.58,6.32-30.05,11.33-34.19,8.78a2.23,2.23,0,0,1-.95-.8c-.13-.14-.26-.27.31-.29s.94.18-.48-.49c-1-.86-5.19-3.31-7.55-5a179.2,179.2,0,0,1-16.13-12.61,228.5,228.5,0,0,1-28.56-30.35c-2.27-2.89-4.57-6-6.84-9.1,25.67-47.57,94.29-105.56,192.82-161.53,31.75-18,94.07-36.91,107-38.3q4.77-.27,9.25-.27c60.17,0,69.69,35.65,70.9,51.79V2291.42C2576.27,2301.88,2565,2318.93,2526.2,2318.93Zm401.48-149.55-9.1,5.44c-38.51,23.1-55.77,53.38-69.61,77.69-18.87,33.12-31.33,55-107.39,65.85a87,87,0,0,1-10.57.57c-38.82,0-50.08-17-54-27.49V1232c1.21-16.14,10.73-51.79,70.91-51.79,3,0,6.07.09,8.63.22,13.54,1.44,75.84,20.3,107.6,38.35C2985.9,1287.92,3062,1360.18,3067.8,1412c.63,5.59,1,10.53,1.44,15.47-1.79-.23-3.55-.49-5.39-.69a295.27,295.27,0,0,0-59.76-.37,230,230,0,0,0-30,5l-1.85.42-2,.36-.19,0-.39.14-.78.25-3.1,1-4.68,1.6-5.7,2.2c-.47.22-.82.47-1.27.69-10.51-2.69-21-5.13-31.66-7.17-17-3.11-34.36-5.63-52.72-5.26a106.29,106.29,0,0,0-14.09,1.28c-2.38.4-4.83,1-7.29,1.61a19.8,19.8,0,0,1-2.57.7l-1.83.45c-5.29,1.08-10.39-.12-15.34-5.1s-8.73-12.05-12.36-19.3c-3.79-7-6.77-15.54-13.41-20.8,8.56,14,5.71,31.14,15.1,47.85,4.13,8.48,14.73,16.41,25.87,17.13l4.28.25c1.2,0,1.62.09,3.49,0,1.59.13,3.17.27,4.85.56a81.89,81.89,0,0,1,10.26,2.41c14,4.25,28.11,11.06,41.78,18.47,1.91,1,3.8,2.23,5.71,3.31-4.55,6.31-8.59,12.47-12.72,18.18-4.78,6.91-9.5,13.47-14.54,19.59-5.1,6.46-7.86,8.19-13,9.89-10.43,3.2-25.77-2.63-44.49-7.41-5-.9-10.59-2.27-18.29-.38a22.55,22.55,0,0,0-10.44,6,70.9,70.9,0,0,0-4.36,5.71,234.63,234.63,0,0,0-14.19,23c-8.52,15.45-16,31.12-23.57,46.76,11.18-13.3,22.33-26.67,34-39.16a223.7,223.7,0,0,1,18-17.46c1.23-1,3.59-3,4.55-3.65.35-.16.39.07.85.07a26.09,26.09,0,0,1,7.22,1.8c13.92,4.76,30.84,16.73,55.49,14.7,12.13-.69,24.49-8.91,31.55-14.55,7.67-5.51,14.87-11.46,21.68-17.31,13.44-11.59,26.34-23.2,36.52-27a21.19,21.19,0,0,1,6.4-1.44,2.32,2.32,0,0,0,.47.26s.08,0,1.55-.07l3.25-.18.81,0,.42,0h.19c-.67.09-2,.32-1.7.28h.07l1.37.09a164.49,164.49,0,0,1,21.66,2.52,221.94,221.94,0,0,1,42.71,12.55c5.38,2.17,11,4.7,16.51,7.37-7,25.65-9.5,48.69,9.55,91.6,9.83,22.08,26.25,69.82,18,126.31l-.45-.06a300.61,300.61,0,0,0-57.81-.93,233.1,233.1,0,0,0-29.07,4.26l-.46.11c-1-.51-1.91-1-2.9-1.5l2.37,1.62h0c-29.73-19.16-61.69-34.46-97.53-41.6-17.94-3.28-37.44-4.82-57.57,1.5a62.23,62.23,0,0,0-27.2,17.08,119.31,119.31,0,0,0-16.06,23c-8.94,16-12,33.94-19,42.48-3.52,4.49-8.84,7.71-15.71,10.23-5.62,2-10.81,2.44-16-.75-5.67-3-10.41-10-19.48-15.19a20.81,20.81,0,0,0-15.84-1.67,34.47,34.47,0,0,0-12.15,6.38c-13.89,12.29-17.55,29.21-21.89,44.65,6.49-14.59,13.71-30.63,26.38-38.31a24.49,24.49,0,0,1,10-3.31,10.2,10.2,0,0,1,7.59,2.17c4.82,3.51,8.8,11.13,16.43,17.58,7.8,7,20.48,9.06,30.37,6.53,8.71-1.81,18.55-6,26.13-13.59s11.63-16.44,15.23-23.67a150.09,150.09,0,0,1,11-19.8,81.82,81.82,0,0,1,13.62-15.56,31.44,31.44,0,0,1,15.08-6c11.57-1.7,25.48,1,38.77,5.87,19.66,7.22,38.59,18.48,55.91,31.71-8.46,9.35-14.66,18.75-20.68,27.14-4.7,6.9-9.22,13.41-14,19.59l-6.74,8.53-3.39,3a15.78,15.78,0,0,1-2.81,1.88c-7.76,5-22.21,2.21-38.42-2.92a131.29,131.29,0,0,0-13.62-3.35c-5-.69-11.52-1.67-19.09,1.73a22.65,22.65,0,0,0-7.39,5.6l-.87,1.33a24.49,24.49,0,0,0-4.13,9.74c-1.14,6.48.15,11.86,1.6,16.35,3.06,9,7.27,16,10.2,23.59,2.91,7.37,4.76,15.55,1.17,23.43,5.86-6.41,6.9-16.4,6.08-25s-2.72-17.34-2.87-24.74c-.11-3.66.51-6.87,1.64-8.46a3,3,0,0,1,1.59-1.32l1.21-1c-.47.6,0,.17,0,.29.14-.09.21.05.32,0,.61-.36,8.75,1.81,15.81,5.24,7.47,3.26,15.68,7.1,25.43,9.56,9.56,2.49,21.64,3.31,33.19-.85,12.15-4.48,19.34-11.71,26.63-16.71,7.16-5.54,13.92-11.36,20.35-16.92,12.62-11.06,25.1-21.28,34.09-23.45,2.32-.71,4.37-.64,4.34-.32l5.71-.33.4,0c.41-.07-3.36.53-1.72.28h.24l.67,0,1.3.07,2.63.14a169.89,169.89,0,0,1,21,2.86,220.37,220.37,0,0,1,33,9.6c-24.38,44.84-30.37,58.06-26,95.8,1.7,14.95,4.29,37.54,1.53,90.22-1.85,35-6.8,61.05-14.79,81.71a282.57,282.57,0,0,0-20.14-20.23,242.91,242.91,0,0,0-22-17.77c-4.25-3-7-4.77-12.76-8.51l-4.74-2.69a42.79,42.79,0,0,0-5.7-2.65,58.76,58.76,0,0,0-10.63-3.14c-14.17-2.73-25.54-.68-35,1.47a261,261,0,0,0-25.17,7.83c-15.09,5.35-28.58,10-41.78,11,.11.39-4-.07-4.59-.07a17.45,17.45,0,0,1-2.83-.35,13.64,13.64,0,0,1-5.33-2.3c-3.31-2.27-6.53-7.41-9.2-14.23-3.13-6.92-4.1-14.72-11.42-25.34-3.54-5.66-13.89-10.33-20-8.68a72.65,72.65,0,0,0-7.39,1.83,37.54,37.54,0,0,0-7.08,3.3c-8.75,5.23-13.76,12-19.32,17.52a53.68,53.68,0,0,1-19.42,13.3c16.69.59,32.64-13.22,45-15.66a19.8,19.8,0,0,1,4.42-.33l4.59.55c2,.76-.19.17.75,1.27,1.52,3,2.93,11.65,4.8,19.94,2,8.46,5.1,18.78,13.43,27.88a44.32,44.32,0,0,0,15,10.52,54.16,54.16,0,0,0,8.78,2.86c3.4.72,3.28.81,7.39,1.43,19.08,3.33,37.59,1.41,53.86-.08,15.77-1.8,32-2.08,35.26,1.57a1.91,1.91,0,0,1,.68,1c.08.16.19.35-.38.19s-.85-.45.31.6c.65,1.08,4,4.68,5.74,7a180,180,0,0,1,11.76,16.76,228.23,228.23,0,0,1,18.5,37.36c.26.67.49,1.38.75,2.05C2956.79,2151.94,2943.08,2160.19,2927.68,2169.38Z" transform="translate(-1683.26 -736.39)"/><path class="cls-2" d="M2509.71,4045.73c-40.52,0-77.38-9.87-109.72-29.42-30.79-18.6-56.87-45.68-77.54-80.5-15.32-25.82-27.7-56-36.77-89.67-15-55.52-16.08-103-16.12-105a55.73,55.73,0,0,1,75.53-53.21c.85.32,86.72,32.85,181.88,59.82,55.1,15.62,96.62,24.71,127.68,29.81-36.85-13.41-81-27-127.44-41.23-86.34-26.51-175.62-53.92-246.64-88.44-42.1-20.46-73.6-41.48-96.3-64.25-40.08-40.23-46.39-80.58-44.63-107.35,0-.41.06-.82.1-1.23a68.51,68.51,0,0,1,30.7-51.42c28.52-18.84,67.82-18.45,145,1.44,51.47,13.26,114.63,33.86,181.51,55.67,75.3,24.55,153.17,49.95,219.28,66.46,14.62,3.65,27.55,6.57,39,8.9-6.95-3-14.56-6.12-22.89-9.41-56.8-22.44-127.14-44.59-201.61-68-90.26-28.42-183.58-57.8-254.61-89-41.28-18.11-72.24-35.59-94.66-53.45-35.25-28.08-52.46-59.81-51.16-94.32,1-26.61,13.35-49.54,34.77-64.55,35.06-24.58,88.59-25.27,184.76-2.41,68.72,16.34,152.8,43.31,234.12,69.39,74,23.73,150.51,48.28,212.88,63.94,29.82,7.48,52.17,11.82,68.8,14.25a420.08,420.08,0,0,0-42.9-19.25c-49.15-19.27-113.72-37.83-182.08-57.48-138.07-39.7-294.56-84.68-398.94-156.5-62.94-43.3-102.46-91.13-124.37-150.52-19.22-52.14-22.44-107.39-25.84-165.89-6-102.45-13.38-229.76-110-408.09-132.06-165.06-221.58-335.4-266.12-506.37-21.4-82.17-32.2-164.41-32.11-244.44a847.42,847.42,0,0,1,31.27-228.69,819.49,819.49,0,0,1,83.77-195.5A862,862,0,0,1,1929.68,1021c51.06-51.21,109.47-97.37,173.61-137.2,64.51-40.06,135.36-74.06,210.6-101l.18-.07c66.74-23.68,146.49-39,230.66-44.2a1043.22,1043.22,0,0,1,286.52,21.64c108.67,23.66,209.63,64.38,300.09,121,103.53,64.87,192.71,150.43,265,254.31l.3.43c81,118.63,134.5,238.87,159.12,357.39a762.2,762.2,0,0,1-5.12,334.64c-23.92,100-68.78,201.46-133.34,301.54-57.33,88.86-129.22,176.42-219.8,267.68-3,3.22-36.6,40.6-78.55,119.46-40.46,76-97.1,207.22-137.23,400.4-2.29,11.59-20.79,94.84-88.17,144.6-36.61,29.15-81.36,45.62-126.16,46.41a182.71,182.71,0,0,1-75.06-14.48c-25.41-10.79-48.49-27.33-68.58-49.16-.57-.63-1.13-1.26-1.67-1.91-1.5-1.79-3-3.52-4.5-5.24-14.17-16.34-33.57-38.71-44.37-86.94-.36-1.62-.65-3.24-.87-4.88-18.24-137.92-10.43-339.24-4.72-486.24,2.27-58.63,4.24-109.27,4.24-145.19a55.73,55.73,0,1,1,111.45,0c0,38.08-2,89.72-4.32,149.51-5.51,142-13.05,336.21,3.51,464.73,4.5,18.94,9.27,24.44,19.28,36,1.53,1.76,3.1,3.56,4.74,5.5,16.73,17.84,36.09,26.88,57.57,26.88h1.35c20.27-.36,41.86-8.59,59.21-22.58.73-.59,1.47-1.15,2.22-1.7,34.18-24.85,45.39-76.29,45.49-76.8.05-.27.11-.54.16-.81,84-405,238.31-568.24,244.83-575l.54-.55c384.64-387.29,444-743.24,186.84-1120.2-184.94-265.4-466-351.45-696.34-351.45-98.92,0-188.44,15.86-257.05,40.2-269.32,96.65-462.34,289.06-529.58,527.89-77.06,273.76,11.6,587.47,249.67,883.36a56.06,56.06,0,0,1,5.47,8.18c49.13,89.79,82.49,176.18,102,264.1,16.85,75.94,20.54,139.34,23.79,195.27,6.49,111.54,9.75,167.52,102.12,231.07,89.44,61.53,236.66,103.86,366.56,141.2,72.08,20.72,140.15,40.29,194.62,61.87,72.85,28.87,113.42,58.66,131.57,96.59,13,27.16,13.45,56.74,1.33,85.52-8.22,19.53-23.46,34.66-44.07,43.76-13.71,6.06-29.54,9.39-48.38,10.17-26.18,1.09-59.51-2.84-101.91-12-72.69-15.73-165.21-45.4-254.69-74.1-73.67-23.63-149.84-48.06-211.86-63.66-14.31-3.6-26.89-6.47-37.94-8.75q18.81,9.07,42.6,18.76c62.86,25.57,143.5,51,221.48,75.5,91.15,28.7,177.25,55.8,242.81,84.73,38.72,17.08,67.2,33.59,87.07,50.48,45.69,38.84,44,78.84,38.86,99.22-5.78,23.12-20.79,42.4-42.28,54.28-38,21-95.76,19.93-193.09-3.67-71.83-17.42-154.86-44.49-235.16-70.68-53.41-17.42-104.09-33.95-147.18-46.2q6.64,3.51,14.1,7.14c63.26,30.75,148.35,56.87,230.63,82.13,67.36,20.69,131,40.22,178.84,61.32,29.55,13,50.72,25.51,66.63,39.28,36.44,31.54,37.7,65.46,35.22,82.86-3.83,26.77-19.16,49.31-43.18,63.47-30.67,18.08-75.11,22.51-139.83,13.93-42.85-5.68-95.48-17.24-156.44-34.36-38.34-10.77-75-22.32-106-32.61,9.94,34,28.69,76.92,62.69,97.35,38.46,23.1,95.48,16.06,169.47-20.94a55.73,55.73,0,0,1,49.85,99.68c-55.93,28-108,43.32-154.76,45.63Q2516,4045.73,2509.71,4045.73Z" transform="translate(-1683.26 -736.39)"/></svg>