<svg id="OBJECTS" xmlns="http://www.w3.org/2000/svg" viewBox="0 0 271.53 171.38"><defs><style>.cls-1{fill:#feca7a;}.cls-2{fill:#d84774;}.cls-3{fill:#16d8d8;}.cls-4{fill:#f24c88;}.cls-5{fill:#00acb3;}.cls-6{fill:#f79663;}.cls-7{fill:#d1d3d4;}</style></defs><rect class="cls-1" x="244.11" y="56.78" width="27.42" height="114.6"/><rect class="cls-2" x="150.95" y="110.35" width="27.42" height="61.03"/><rect class="cls-3" x="104.37" y="131.05" width="27.42" height="40.33"/><rect class="cls-4" x="57.79" y="145.2" width="27.42" height="26.18"/><rect class="cls-5" x="11.2" y="153.87" width="27.42" height="17.51"/><rect class="cls-6" x="197.53" y="86.23" width="27.42" height="85.15"/><path class="cls-7" d="M103,299.74c-1.56,0-2.47,0-2.68,0l.27-7.07c.34,0,34.33,1.08,82.55-13.11,44.46-13.09,110.47-42.21,172.46-106.62l5.09,4.9c-63.17,65.63-130.5,95.28-175.86,108.59C142.81,298.72,112,299.74,103,299.74Z" transform="translate(-100.31 -162.94)"/><polygon class="cls-7" points="271.23 0 235.43 7.44 263.79 35.8 271.23 0"/></svg>