<svg id="Capa_2" data-name="Capa 2" xmlns="http://www.w3.org/2000/svg" viewBox="0 0 165.98 165.98"><defs><style>.cls-1,.cls-8{fill:#d6dde2;}.cls-1,.cls-2,.cls-3,.cls-4,.cls-5,.cls-6,.cls-7{fill-rule:evenodd;}.cls-2{fill:#b4c7d3;}.cls-3{fill:#99a3b2;}.cls-4{fill:#636e83;}.cls-5{fill:#3bc0d9;}.cls-6{fill:#0aaac4;}.cls-7{fill:#fff;}</style></defs><path class="cls-1" d="M211.14,87.85a83,83,0,1,1-83,83,83,83,0,0,1,83-83Z" transform="translate(-128.15 -87.85)"/><path class="cls-2" d="M271.17,113.55V228.12A83,83,0,0,1,169,242.34V112.48a4.65,4.65,0,0,1,4.65-4.65h91.47a79.59,79.59,0,0,1,6,5.72Z" transform="translate(-128.15 -87.85)"/><path class="cls-3" d="M262.38,100.62V248.71a4.65,4.65,0,0,1-4.65,4.65H164.87a4.65,4.65,0,0,1-4.65-4.65V100.62A4.65,4.65,0,0,1,164.87,96h92.86a4.65,4.65,0,0,1,4.65,4.65Z" transform="translate(-128.15 -87.85)"/><polygon class="cls-4" points="122.69 147.44 122.69 19.04 42.23 19.04 42.23 147.44 122.69 147.44 122.69 147.44"/><polygon class="cls-1" points="124.08 149.04 124.08 20.49 43.84 20.49 43.84 149.04 124.08 149.04 124.08 149.04"/><polygon class="cls-5" points="122.69 147.44 122.69 20.49 43.84 20.49 43.84 147.44 122.69 147.44 122.69 147.44"/><path class="cls-6" d="M250.84,192.22V149.75L172,182.07v42.48l78.85-32.33Zm0-51.95V114.41L172,146.74v25.85l78.85-32.32Z" transform="translate(-128.15 -87.85)"/><path class="cls-7" d="M200.21,132.77a1.32,1.32,0,0,1-.81.21c-1.2-.11-5.4-.33-8.7,1.25a1.24,1.24,0,1,1-1.07-2.23,20.56,20.56,0,0,1,10-1.49,1.24,1.24,0,0,1,.59,2.26Z" transform="translate(-128.15 -87.85)"/><path class="cls-7" d="M235.35,146a1.29,1.29,0,0,1-.89-.37c-13.51-13.82-34.24-16.72-37.76-16.72a1.24,1.24,0,1,1,0-2.48c.23,0,23.72,1.3,39.54,17.46a1.24,1.24,0,0,1-.89,2.11Z" transform="translate(-128.15 -87.85)"/><path class="cls-7" d="M247.05,171.86a1.24,1.24,0,0,1-1.27-1.13c0-.14-2.18-14.72-17.81-25.69-18.62-13.41-37.27-5.89-39.26-4.34a1.24,1.24,0,1,1-1.52-2c2.3-1.77,22.1-10.2,42.21,4.28,14.57,10.22,18.57,24.29,18.85,27.5a1.23,1.23,0,0,1-1.13,1.33Z" transform="translate(-128.15 -87.85)"/><path class="cls-7" d="M220.7,208.85c-.61,0-1.23,0-1.87-.06-22.91-3.47-27.27-17.47-27.84-25.51-.17-2.48-.6-15.2,7.91-21.7,7.22-5.53,13.95-6.07,21.82-1.74,8.75,4.81,9.1,13.57,9.26,17.77l0,.39a15.87,15.87,0,0,1-4.4,11.06,10.2,10.2,0,0,1-8.12,2.82c-8.35-.94-14.23-9-14.62-14.14l-.05-.6c-.34-4.21-.68-8.57,5.51-11.71a11.13,11.13,0,0,1,4.27-.82h0a9.68,9.68,0,0,0-6.94.58c-4.61,2.32-5.45,6.44-5.34,9.49.19,5.86,4,11.94,7.1,13.26a1.24,1.24,0,0,1,.66,1.62,1.25,1.25,0,0,1-1.63.66c-4.37-1.85-8.39-9.08-8.61-15.46-.18-5.32,2.18-9.5,6.65-11.76,2.83-1.58,6.81-1.64,10.9-.12,4.84,1.8,8.73,5.38,10.17,9.35a1.24,1.24,0,0,1-2.19,1.12c-4-5.86-10.22-7.29-14-5.67-4.63,2.35-4.4,5.25-4.08,9.26l.05.61c.27,3.58,4.89,11,12.39,11.87a7.7,7.7,0,0,0,6.16-2.15,13.34,13.34,0,0,0,3.64-9.16v-.4c-.16-4-.46-11.56-8-15.7-7.08-3.89-12.62-3.45-19.13,1.53-7.49,5.74-7.09,17.31-6.94,19.57.89,12.6,10,20.85,25.63,23.22,6.39.36,11.62-1.39,15.43-5.25,8.42-8.54,7.35-24.68,7.34-24.84a1.15,1.15,0,0,1,0-.32c.12-.62,2.59-15.26-17.24-27.38-15.57-9.12-29.83-8.07-42.34,3.15a1.24,1.24,0,1,1-1.65-1.84c13.4-12,28.63-13.18,45.27-3.44,20.47,12.52,18.72,27.92,18.43,29.8.11,1.86.79,17.62-8.05,26.6-3.95,4-9.19,6-15.59,6Z" transform="translate(-128.15 -87.85)"/><path class="cls-7" d="M218.82,204.73a1.24,1.24,0,0,1,0-2.47c9.83-.38,14.81-7.72,16.44-10.13,2.33-3.93,4.36-13.43.49-23.66-3.54-10.16-12.46-17.7-24.47-20.72-12.54-2.85-26.42,6-31.21,13.15a1.25,1.25,0,0,1-1.72.35,1.23,1.23,0,0,1-.34-1.72c5.31-8,20-17.34,33.84-14.19,12.87,3.24,22.42,11.36,26.23,22.28,3.9,10.32,2.39,20.58-.66,25.73l-.11.17c-4.85,7.15-11,10.93-18.39,11.21Z" transform="translate(-128.15 -87.85)"/><path class="cls-8" d="M177.62,131.18a1.31,1.31,0,0,1-1.31-1.31V113.6a1.31,1.31,0,0,1,1.31-1.31h16.26a1.31,1.31,0,1,1,0,2.62H178.93v15A1.31,1.31,0,0,1,177.62,131.18Z" transform="translate(-128.15 -87.85)"/></svg>