<svg id="Layer_1" data-name="Layer 1" xmlns="http://www.w3.org/2000/svg" viewBox="0 0 144.28 110.91"><defs><style>.cls-1{fill:#7a7a7a;}</style></defs><path class="cls-1" d="M218.15,216.13l7.46-2.87-2.25-12.74h-7.8a33.73,33.73,0,0,0-3.91-6.9l3.87-7-9.92-8.32-6,5a33.94,33.94,0,0,0-7.42-2.79l-1.53-7.84h-13l-1.34,7.7a34.21,34.21,0,0,0-7.48,2.63l-6.21-5-9.91,8.33,3.92,6.75a33.89,33.89,0,0,0-4,6.83l-8,.14-2.25,12.75,7.34,2.66a34.74,34.74,0,0,0,1.3,7.82l-6,5.25,6.47,11.2,7.34-2.68a34.92,34.92,0,0,0,6,5.16l-1.24,7.89,12.16,4.42,3.89-6.77a35.67,35.67,0,0,0,4.29.27,33.72,33.72,0,0,0,3.64-.2l4.12,6.85,12.17-4.42-1.38-7.69a34.86,34.86,0,0,0,6.12-5l7.56,2.59,6.47-11.21-6-5A34.58,34.58,0,0,0,218.15,216.13ZM184,232.76a18.95,18.95,0,1,1,18.95-18.95A19,19,0,0,1,184,232.76Z" transform="translate(-142.44 -148.58)"/><path class="cls-1" d="M280.71,228.36l6-2.31-1.81-10.29h-6.29a27.79,27.79,0,0,0-3.16-5.57l3.13-5.64-8-6.71-4.82,4.05a28,28,0,0,0-6-2.24l-1.23-6.33H248.09L247,199.54a27.83,27.83,0,0,0-6,2.13l-5-4-8,6.71,3.17,5.45a28,28,0,0,0-3.26,5.52l-6.45.11-1.81,10.29,5.93,2.14a27.38,27.38,0,0,0,1.05,6.32l-4.86,4.23,5.22,9,5.92-2.17a27.67,27.67,0,0,0,4.86,4.17l-1,6.36,9.82,3.58,3.14-5.47a28.32,28.32,0,0,0,3.46.23,25.94,25.94,0,0,0,2.94-.17l3.32,5.53,9.82-3.58-1.11-6.2a27.58,27.58,0,0,0,4.94-4.07l6.1,2.1,5.23-9.05-4.84-4A27.12,27.12,0,0,0,280.71,228.36Zm-27.57,19A20.84,20.84,0,1,1,274,226.49,20.83,20.83,0,0,1,253.14,247.32Z" transform="translate(-142.44 -148.58)"/><path class="cls-1" d="M247.42,186.4l3.74,2.2,4.65-5.26L253.18,180a18.63,18.63,0,0,0,1.61-4l4.27-.72.19-7-4.15-.84a19,19,0,0,0-1.33-4.09l2.81-3.3-4.37-5.5-3.72,2a18.09,18.09,0,0,0-3.65-2.28l0-4.33L238,148.58l-1.55,3.94a19.28,19.28,0,0,0-4.26.6l-2.76-3.34-6.18,3.35,1.36,4a18.89,18.89,0,0,0-2.89,3.2l-4.26-.79-2.58,6.53,3.62,2.22a19.32,19.32,0,0,0-.16,4.3l-3.77,2.14,2.23,6.66,4.19-.64a18.92,18.92,0,0,0,1.34,1.92c.41.51.85,1,1.31,1.48l-1.52,4.05,6,3.68,2.79-3.18a18.47,18.47,0,0,0,4.21.89l1.45,4.09,7-1,.1-4.22A18.81,18.81,0,0,0,247.42,186.4Zm-21.52-6.57a14,14,0,1,1,19.69,2.24A14,14,0,0,1,225.9,179.83Z" transform="translate(-142.44 -148.58)"/></svg>