<svg id="Ñëîé_1" data-name="Ñëîé 1" xmlns="http://www.w3.org/2000/svg" xmlns:xlink="http://www.w3.org/1999/xlink" viewBox="0 0 385.89 302.5"><defs><style>.cls-1{mask:url(#mask);}.cls-10,.cls-12,.cls-14,.cls-16,.cls-2,.cls-4,.cls-6,.cls-8{mix-blend-mode:multiply;}.cls-2{fill:url(#Áåçûìÿííûé_ãðàäèåíò_64);}.cls-3{mask:url(#mask-2);}.cls-4{fill:url(#Áåçûìÿííûé_ãðàäèåíò_59);}.cls-5{mask:url(#mask-3);}.cls-6{fill:url(#Áåçûìÿííûé_ãðàäèåíò_58);}.cls-7{mask:url(#mask-4);}.cls-8{fill:url(#Áåçûìÿííûé_ãðàäèåíò_57);}.cls-9{mask:url(#mask-5);}.cls-10{fill:url(#Áåçûìÿííûé_ãðàäèåíò_63);}.cls-11{mask:url(#mask-6);}.cls-12{fill:url(#Áåçûìÿííûé_ãðàäèåíò_62);}.cls-13{mask:url(#mask-7);}.cls-14{fill:url(#Áåçûìÿííûé_ãðàäèåíò_61);}.cls-15{mask:url(#mask-8);}.cls-16{fill:url(#Áåçûìÿííûé_ãðàäèåíò_60);}.cls-17{fill:none;}.cls-18{mask:url(#mask-9);}.cls-19,.cls-21,.cls-23,.cls-25,.cls-27,.cls-29,.cls-31,.cls-33{opacity:0.66;}.cls-19{fill:url(#Áåçûìÿííûé_ãðàäèåíò_32);}.cls-20{mask:url(#mask-10);}.cls-21{fill:url(#Áåçûìÿííûé_ãðàäèåíò_32-2);}.cls-22{mask:url(#mask-11);}.cls-23{fill:url(#Áåçûìÿííûé_ãðàäèåíò_32-3);}.cls-24{mask:url(#mask-12);}.cls-25{fill:url(#Áåçûìÿííûé_ãðàäèåíò_32-4);}.cls-26{mask:url(#mask-13);}.cls-27{fill:url(#Áåçûìÿííûé_ãðàäèåíò_32-5);}.cls-28{mask:url(#mask-14);}.cls-29{fill:url(#Áåçûìÿííûé_ãðàäèåíò_32-6);}.cls-30{mask:url(#mask-15);}.cls-31{fill:url(#Áåçûìÿííûé_ãðàäèåíò_32-7);}.cls-32{mask:url(#mask-16);}.cls-33{fill:url(#Áåçûìÿííûé_ãðàäèåíò_32-8);}.cls-34{fill:url(#Áåçûìÿííûé_ãðàäèåíò_20);}.cls-35{fill:url(#Áåçûìÿííûé_ãðàäèåíò_28);}.cls-36{fill:url(#Áåçûìÿííûé_ãðàäèåíò_29);}.cls-37{fill:#242993;}.cls-38{opacity:0.51;}.cls-39{fill:#4553c7;}.cls-40{fill:url(#Áåçûìÿííûé_ãðàäèåíò_29-2);}.cls-41{fill:url(#Áåçûìÿííûé_ãðàäèåíò_28-2);}.cls-42{fill:#2859cb;}.cls-43{fill:#adc8ff;}.cls-44{fill:#91afff;}.cls-45{fill:url(#Áåçûìÿííûé_ãðàäèåíò_28-3);}.cls-46{opacity:0.11;}.cls-47{clip-path:url(#clip-path);}.cls-48{fill:url(#Áåçûìÿííûé_ãðàäèåíò_28-4);}.cls-49{fill:url(#Áåçûìÿííûé_ãðàäèåíò_28-5);}.cls-50,.cls-51{fill:#42ffff;}.cls-51{opacity:0.5;}.cls-52{filter:url(#luminosity-noclip-16);}.cls-53{filter:url(#luminosity-noclip-15);}.cls-54{filter:url(#luminosity-noclip-14);}.cls-55{filter:url(#luminosity-noclip-13);}.cls-56{filter:url(#luminosity-noclip-12);}.cls-57{filter:url(#luminosity-noclip-11);}.cls-58{filter:url(#luminosity-noclip-10);}.cls-59{filter:url(#luminosity-noclip-9);}.cls-60{filter:url(#luminosity-noclip-8);}.cls-61{filter:url(#luminosity-noclip-7);}.cls-62{filter:url(#luminosity-noclip-6);}.cls-63{filter:url(#luminosity-noclip-5);}.cls-64{filter:url(#luminosity-noclip-4);}.cls-65{filter:url(#luminosity-noclip-3);}.cls-66{filter:url(#luminosity-noclip-2);}.cls-67{filter:url(#luminosity-noclip);}</style><filter id="luminosity-noclip" x="309.74" y="-8392" width="209.59" height="32766" filterUnits="userSpaceOnUse" color-interpolation-filters="sRGB"><feFlood flood-color="#fff" result="bg"/><feBlend in="SourceGraphic" in2="bg"/></filter><mask id="mask" x="309.74" y="-8392" width="209.59" height="32766" maskUnits="userSpaceOnUse"><g class="cls-67"/></mask><linearGradient id="Áåçûìÿííûé_ãðàäèåíò_64" x1="-363.53" y1="1882.63" x2="-363.53" y2="1678.29" gradientTransform="matrix(0.87, -0.5, 1, 0.58, -1044.82, -906.32)" gradientUnits="userSpaceOnUse"><stop offset="0"/><stop offset="0.06" stop-color="#2a2a2a"/><stop offset="0.15" stop-color="#626262"/><stop offset="0.23" stop-color="#929292"/><stop offset="0.31" stop-color="#b6b6b6"/><stop offset="0.39" stop-color="#d1d1d1"/><stop offset="0.45" stop-color="#e0e0e0"/><stop offset="0.51" stop-color="#e6e6e6"/><stop offset="0.55" stop-color="#dedede"/><stop offset="0.62" stop-color="#c9c9c9"/><stop offset="0.71" stop-color="#a7a7a7"/><stop offset="0.8" stop-color="#787878"/><stop offset="0.91" stop-color="#3b3b3b"/><stop offset="1"/></linearGradient><filter id="luminosity-noclip-2" x="395.46" y="-8392" width="264.59" height="32766" filterUnits="userSpaceOnUse" color-interpolation-filters="sRGB"><feFlood flood-color="#fff" result="bg"/><feBlend in="SourceGraphic" in2="bg"/></filter><mask id="mask-2" x="395.46" y="-8392" width="264.59" height="32766" maskUnits="userSpaceOnUse"><g class="cls-66"/></mask><linearGradient id="Áåçûìÿííûé_ãðàäèåíò_59" x1="-155.49" y1="1842.53" x2="-155.49" y2="1583.03" xlink:href="#Áåçûìÿííûé_ãðàäèåíò_64"/><filter id="luminosity-noclip-3" x="399.05" y="-8392" width="225.76" height="32766" filterUnits="userSpaceOnUse" color-interpolation-filters="sRGB"><feFlood flood-color="#fff" result="bg"/><feBlend in="SourceGraphic" in2="bg"/></filter><mask id="mask-3" x="399.05" y="-8392" width="225.76" height="32766" maskUnits="userSpaceOnUse"><g class="cls-65"/></mask><linearGradient id="Áåçûìÿííûé_ãðàäèåíò_58" x1="-242.09" y1="1882.63" x2="-242.09" y2="1662.07" xlink:href="#Áåçûìÿííûé_ãðàäèåíò_64"/><filter id="luminosity-noclip-4" x="441.59" y="-8392" width="97.67" height="32766" filterUnits="userSpaceOnUse" color-interpolation-filters="sRGB"><feFlood flood-color="#fff" result="bg"/><feBlend in="SourceGraphic" in2="bg"/></filter><mask id="mask-4" x="441.59" y="-8392" width="97.67" height="32766" maskUnits="userSpaceOnUse"><g class="cls-64"/></mask><linearGradient id="Áåçûìÿííûé_ãðàäèåíò_57" x1="-211.73" y1="1770.36" x2="-211.73" y2="1678.29" xlink:href="#Áåçûìÿííûé_ãðàäèåíò_64"/><filter id="luminosity-noclip-5" x="384.89" y="-8392" width="112.04" height="32766" filterUnits="userSpaceOnUse" color-interpolation-filters="sRGB"><feFlood flood-color="#fff" result="bg"/><feBlend in="SourceGraphic" in2="bg"/></filter><mask id="mask-5" x="384.89" y="-8392" width="112.04" height="32766" maskUnits="userSpaceOnUse"><g class="cls-63"/></mask><linearGradient id="Áåçûìÿííûé_ãðàäèåíò_63" x1="-333.17" y1="1833.7" x2="-333.17" y2="1727.22" xlink:href="#Áåçûìÿííûé_ãðàäèåíò_64"/><filter id="luminosity-noclip-6" x="433.08" y="-8392" width="138.99" height="32766" filterUnits="userSpaceOnUse" color-interpolation-filters="sRGB"><feFlood flood-color="#fff" result="bg"/><feBlend in="SourceGraphic" in2="bg"/></filter><mask id="mask-6" x="433.08" y="-8392" width="138.99" height="32766" maskUnits="userSpaceOnUse"><g class="cls-62"/></mask><linearGradient id="Áåçûìÿííûé_ãðàäèåíò_62" x1="-302.81" y1="1882.63" x2="-302.81" y2="1749.11" xlink:href="#Áåçûìÿííûé_ãðàäèåíò_64"/><filter id="luminosity-noclip-7" x="333.85" y="-8392" width="264.59" height="32766" filterUnits="userSpaceOnUse" color-interpolation-filters="sRGB"><feFlood flood-color="#fff" result="bg"/><feBlend in="SourceGraphic" in2="bg"/></filter><mask id="mask-7" x="333.85" y="-8392" width="264.59" height="32766" maskUnits="userSpaceOnUse"><g class="cls-61"/></mask><linearGradient id="Áåçûìÿííûé_ãðàäèåíò_61" x1="-272.45" y1="1882.63" x2="-272.45" y2="1623.13" xlink:href="#Áåçûìÿííûé_ãðàäèåíò_64"/><filter id="luminosity-noclip-8" x="431.03" y="-8392" width="264.59" height="32766" filterUnits="userSpaceOnUse" color-interpolation-filters="sRGB"><feFlood flood-color="#fff" result="bg"/><feBlend in="SourceGraphic" in2="bg"/></filter><mask id="mask-8" x="431.03" y="-8392" width="264.59" height="32766" maskUnits="userSpaceOnUse"><g class="cls-60"/></mask><linearGradient id="Áåçûìÿííûé_ãðàäèåíò_60" x1="-184.56" y1="1903.54" x2="-184.56" y2="1644.04" xlink:href="#Áåçûìÿííûé_ãðàäèåíò_64"/><filter id="luminosity-noclip-9" x="309.74" y="249.76" width="209.59" height="122.33" filterUnits="userSpaceOnUse" color-interpolation-filters="sRGB"><feFlood flood-color="#fff" result="bg"/><feBlend in="SourceGraphic" in2="bg"/></filter><mask id="mask-9" x="0" y="173.53" width="209.59" height="122.33" maskUnits="userSpaceOnUse"><g class="cls-59"><g transform="translate(-309.74 -76.23)"><g class="cls-1"><path class="cls-2" d="M313.17,251.13l-1,.56c-3.61,2.06-3.18,5.7,1,8.12L501.85,370.06c4.15,2.43,10.44,2.72,14,.66l1-.56c3.61-2.06,3.18-5.7-1-8.12L327.22,251.79C323.07,249.37,316.78,249.07,313.17,251.13Z"/></g></g></g></mask><linearGradient id="Áåçûìÿííûé_ãðàäèåíò_32" x1="-363.53" y1="1882.63" x2="-363.53" y2="1678.29" gradientTransform="matrix(0.87, -0.5, 1, 0.58, -1044.82, -906.32)" gradientUnits="userSpaceOnUse"><stop offset="0" stop-color="#5778ff"/><stop offset="0.01" stop-color="#567cff"/><stop offset="0.13" stop-color="#4fabff"/><stop offset="0.24" stop-color="#49cfff"/><stop offset="0.34" stop-color="#45eaff"/><stop offset="0.43" stop-color="#43f9ff"/><stop offset="0.51" stop-color="#42ffff"/><stop offset="0.57" stop-color="#43f7ff"/><stop offset="0.67" stop-color="#46e3ff"/><stop offset="0.8" stop-color="#4cc0ff"/><stop offset="0.93" stop-color="#5391ff"/><stop offset="1" stop-color="#5778ff"/></linearGradient><filter id="luminosity-noclip-10" x="384.89" y="263.22" width="112.04" height="65.33" filterUnits="userSpaceOnUse" color-interpolation-filters="sRGB"><feFlood flood-color="#fff" result="bg"/><feBlend in="SourceGraphic" in2="bg"/></filter><mask id="mask-10" x="75.15" y="186.99" width="112.04" height="65.33" maskUnits="userSpaceOnUse"><g class="cls-58"><g transform="translate(-309.74 -76.23)"><g class="cls-9"><path class="cls-10" d="M388.31,264.59l-1,.56c-3.62,2.06-3.18,5.69,1,8.12l91.14,53.25c4.15,2.42,10.44,2.72,14.06.66l1-.56c3.62-2.06,3.19-5.7-1-8.12l-91.14-53.25C398.22,262.82,391.93,262.53,388.31,264.59Z"/></g></g></g></mask><linearGradient id="Áåçûìÿííûé_ãðàäèåíò_32-2" x1="-333.17" y1="1833.7" x2="-333.17" y2="1727.22" xlink:href="#Áåçûìÿííûé_ãðàäèåíò_32"/><filter id="luminosity-noclip-11" x="433.08" y="260.93" width="138.99" height="81.08" filterUnits="userSpaceOnUse" color-interpolation-filters="sRGB"><feFlood flood-color="#fff" result="bg"/><feBlend in="SourceGraphic" in2="bg"/></filter><mask id="mask-11" x="123.34" y="184.69" width="138.99" height="81.08" maskUnits="userSpaceOnUse"><g class="cls-57"><g transform="translate(-309.74 -76.23)"><g class="cls-11"><path class="cls-12" d="M436.51,262.3l-1,.56c-3.61,2.06-3.18,5.69,1,8.12l118.09,69c4.15,2.42,10.44,2.71,14,.65l1-.55c3.61-2.07,3.18-5.7-1-8.13L450.56,263C446.41,260.53,440.12,260.24,436.51,262.3Z"/></g></g></g></mask><linearGradient id="Áåçûìÿííûé_ãðàäèåíò_32-3" x1="-302.81" y1="1882.63" x2="-302.81" y2="1749.11" xlink:href="#Áåçûìÿííûé_ãðàäèåíò_32"/><filter id="luminosity-noclip-12" x="333.85" y="172.5" width="264.59" height="154.47" filterUnits="userSpaceOnUse" color-interpolation-filters="sRGB"><feFlood flood-color="#fff" result="bg"/><feBlend in="SourceGraphic" in2="bg"/></filter><mask id="mask-12" x="24.11" y="96.26" width="264.59" height="154.47" maskUnits="userSpaceOnUse"><g class="cls-56"><g transform="translate(-309.74 -76.23)"><g class="cls-13"><path class="cls-14" d="M337.28,173.87l-1,.56c-3.61,2.06-3.18,5.69,1,8.12L581,324.93c4.15,2.43,10.44,2.72,14,.66l1-.56c3.61-2.06,3.18-5.69-1-8.12L351.33,174.53C347.18,172.1,340.89,171.81,337.28,173.87Z"/></g></g></g></mask><linearGradient id="Áåçûìÿííûé_ãðàäèåíò_32-4" x1="-272.45" y1="1882.63" x2="-272.45" y2="1623.13" xlink:href="#Áåçûìÿííûé_ãðàäèåíò_32"/><filter id="luminosity-noclip-13" x="431.03" y="141.13" width="264.59" height="154.47" filterUnits="userSpaceOnUse" color-interpolation-filters="sRGB"><feFlood flood-color="#fff" result="bg"/><feBlend in="SourceGraphic" in2="bg"/></filter><mask id="mask-13" x="121.29" y="64.9" width="264.59" height="154.47" maskUnits="userSpaceOnUse"><g class="cls-55"><g transform="translate(-309.74 -76.23)"><g class="cls-15"><path class="cls-16" d="M434.46,142.5l-1,.56c-3.62,2.06-3.19,5.7,1,8.12L678.14,293.57c4.15,2.42,10.45,2.71,14.06.65l1-.56c3.61-2.06,3.18-5.69-1-8.12L448.52,143.16C444.37,140.73,438.08,140.44,434.46,142.5Z"/></g></g></g></mask><linearGradient id="Áåçûìÿííûé_ãðàäèåíò_32-5" x1="-184.56" y1="1903.54" x2="-184.56" y2="1644.04" xlink:href="#Áåçûìÿííûé_ãðàäèåíò_32"/><filter id="luminosity-noclip-14" x="395.46" y="91.19" width="264.59" height="154.47" filterUnits="userSpaceOnUse" color-interpolation-filters="sRGB"><feFlood flood-color="#fff" result="bg"/><feBlend in="SourceGraphic" in2="bg"/></filter><mask id="mask-14" x="85.72" y="14.95" width="264.59" height="154.47" maskUnits="userSpaceOnUse"><g class="cls-54"><g transform="translate(-309.74 -76.23)"><g class="cls-3"><path class="cls-4" d="M398.89,92.56l-1,.56c-3.61,2.06-3.18,5.69,1,8.12L642.57,243.62c4.15,2.43,10.44,2.72,14.06.66l1-.56c3.62-2.06,3.18-5.7-1-8.12L412.94,93.22C408.79,90.79,402.5,90.5,398.89,92.56Z"/></g></g></g></mask><linearGradient id="Áåçûìÿííûé_ãðàäèåíò_32-6" x1="-155.49" y1="1842.53" x2="-155.49" y2="1583.03" xlink:href="#Áåçûìÿííûé_ãðàäèåíò_32"/><filter id="luminosity-noclip-15" x="399.05" y="180.14" width="225.76" height="131.78" filterUnits="userSpaceOnUse" color-interpolation-filters="sRGB"><feFlood flood-color="#fff" result="bg"/><feBlend in="SourceGraphic" in2="bg"/></filter><mask id="mask-15" x="89.31" y="103.91" width="225.76" height="131.78" maskUnits="userSpaceOnUse"><g class="cls-53"><g transform="translate(-309.74 -76.23)"><g class="cls-5"><path class="cls-6" d="M402.48,181.51l-1,.56c-3.62,2.06-3.18,5.7,1,8.12l204.86,119.7c4.15,2.43,10.44,2.72,14,.66l1-.56c3.61-2.06,3.18-5.7-1-8.12L416.53,182.17C412.38,179.75,406.09,179.45,402.48,181.51Z"/></g></g></g></mask><linearGradient id="Áåçûìÿííûé_ãðàäèåíò_32-7" x1="-242.09" y1="1882.63" x2="-242.09" y2="1662.07" xlink:href="#Áåçûìÿííûé_ãðàäèåíò_32"/><filter id="luminosity-noclip-16" x="441.59" y="174.55" width="97.67" height="56.94" filterUnits="userSpaceOnUse" color-interpolation-filters="sRGB"><feFlood flood-color="#fff" result="bg"/><feBlend in="SourceGraphic" in2="bg"/></filter><mask id="mask-16" x="131.85" y="98.32" width="97.67" height="56.94" maskUnits="userSpaceOnUse"><g class="cls-52"><g transform="translate(-309.74 -76.23)"><g class="cls-7"><path class="cls-8" d="M445,175.92l-1,.56c-3.62,2.06-3.18,5.69,1,8.12l76.76,44.85c4.15,2.43,10.45,2.72,14.06.66l1-.56c3.61-2.06,3.18-5.7-1-8.12l-76.77-44.85C454.92,174.15,448.63,173.86,445,175.92Z"/></g></g></g></mask><linearGradient id="Áåçûìÿííûé_ãðàäèåíò_32-8" x1="-211.73" y1="1770.36" x2="-211.73" y2="1678.29" xlink:href="#Áåçûìÿííûé_ãðàäèåíò_32"/><linearGradient id="Áåçûìÿííûé_ãðàäèåíò_20" x1="-1425.32" y1="310.24" x2="-1191" y2="310.24" gradientTransform="matrix(-1, 0, 0, 1, -851.13, 0)" gradientUnits="userSpaceOnUse"><stop offset="0" stop-color="#42ffff"/><stop offset="0.15" stop-color="#43faff"/><stop offset="0.33" stop-color="#45ecff"/><stop offset="0.52" stop-color="#49d4ff"/><stop offset="0.72" stop-color="#4eb3ff"/><stop offset="0.93" stop-color="#5489ff"/><stop offset="1" stop-color="#5778ff"/></linearGradient><linearGradient id="Áåçûìÿííûé_ãðàäèåíò_28" x1="-1456.49" y1="197.77" x2="-1278.87" y2="197.77" gradientTransform="matrix(-1, 0, 0, 1, -851.13, 0)" gradientUnits="userSpaceOnUse"><stop offset="0" stop-color="#c0d6ff"/><stop offset="0.3" stop-color="#c5dbff"/><stop offset="0.65" stop-color="#d3e9ff"/><stop offset="1" stop-color="#e9ffff"/></linearGradient><linearGradient id="Áåçûìÿííûé_ãðàäèåíò_29" x1="-1456.48" y1="243.32" x2="-1425.99" y2="243.32" gradientTransform="matrix(-1, 0, 0, 1, -851.13, 0)" gradientUnits="userSpaceOnUse"><stop offset="0" stop-color="#5778ff"/><stop offset="0.18" stop-color="#5c7dff"/><stop offset="0.39" stop-color="#6a8aff"/><stop offset="0.61" stop-color="#82a0ff"/><stop offset="0.85" stop-color="#a3beff"/><stop offset="1" stop-color="#bcd5ff"/></linearGradient><linearGradient id="Áåçûìÿííûé_ãðàäèåíò_29-2" x1="-1432.69" y1="294.52" x2="-1181.84" y2="294.52" xlink:href="#Áåçûìÿííûé_ãðàäèåíò_29"/><linearGradient id="Áåçûìÿííûé_ãðàäèåíò_28-2" x1="-1348.4" y1="286.16" x2="-1097.42" y2="286.16" xlink:href="#Áåçûìÿííûé_ãðàäèåíò_28"/><linearGradient id="Áåçûìÿííûé_ãðàäèåíò_28-3" x1="-1305.9" y1="300.41" x2="-1241.65" y2="300.41" xlink:href="#Áåçûìÿííûé_ãðàäèåíò_28"/><clipPath id="clip-path" transform="translate(-309.74 -76.23)"><polygon id="SVGID" class="cls-17" points="449.17 101.56 597.37 187.13 579 295.47 430.89 209.97 449.17 101.56"/></clipPath><linearGradient id="Áåçûìÿííûé_ãðàäèåíò_28-4" x1="-1444.29" y1="230.53" x2="-1193.31" y2="230.53" xlink:href="#Áåçûìÿííûé_ãðàäèåíò_28"/><linearGradient id="Áåçûìÿííûé_ãðàäèåíò_28-5" x1="-1460.81" y1="212.11" x2="-1396.57" y2="212.11" xlink:href="#Áåçûìÿííûé_ãðàäèåíò_28"/></defs><g class="cls-18"><path class="cls-19" d="M313.17,251.13l-1,.56c-3.61,2.06-3.18,5.7,1,8.12L501.85,370.06c4.15,2.43,10.44,2.72,14,.66l1-.56c3.61-2.06,3.18-5.7-1-8.12L327.22,251.79C323.07,249.37,316.78,249.07,313.17,251.13Z" transform="translate(-309.74 -76.23)"/></g><g class="cls-20"><path class="cls-21" d="M388.31,264.59l-1,.56c-3.62,2.06-3.18,5.69,1,8.12l91.14,53.25c4.15,2.42,10.44,2.72,14.06.66l1-.56c3.62-2.06,3.19-5.7-1-8.12l-91.14-53.25C398.22,262.82,391.93,262.53,388.31,264.59Z" transform="translate(-309.74 -76.23)"/></g><g class="cls-22"><path class="cls-23" d="M436.51,262.3l-1,.56c-3.61,2.06-3.18,5.69,1,8.12l118.09,69c4.15,2.42,10.44,2.71,14,.65l1-.55c3.61-2.07,3.18-5.7-1-8.13L450.56,263C446.41,260.53,440.12,260.24,436.51,262.3Z" transform="translate(-309.74 -76.23)"/></g><g class="cls-24"><path class="cls-25" d="M337.28,173.87l-1,.56c-3.61,2.06-3.18,5.69,1,8.12L581,324.93c4.15,2.43,10.44,2.72,14,.66l1-.56c3.61-2.06,3.18-5.69-1-8.12L351.33,174.53C347.18,172.1,340.89,171.81,337.28,173.87Z" transform="translate(-309.74 -76.23)"/></g><g class="cls-26"><path class="cls-27" d="M434.46,142.5l-1,.56c-3.62,2.06-3.19,5.7,1,8.12L678.14,293.57c4.15,2.42,10.45,2.71,14.06.65l1-.56c3.61-2.06,3.18-5.69-1-8.12L448.52,143.16C444.37,140.73,438.08,140.44,434.46,142.5Z" transform="translate(-309.74 -76.23)"/></g><g class="cls-28"><path class="cls-29" d="M398.89,92.56l-1,.56c-3.61,2.06-3.18,5.69,1,8.12L642.57,243.62c4.15,2.43,10.44,2.72,14.06.66l1-.56c3.62-2.06,3.18-5.7-1-8.12L412.94,93.22C408.79,90.79,402.5,90.5,398.89,92.56Z" transform="translate(-309.74 -76.23)"/></g><g class="cls-30"><path class="cls-31" d="M402.48,181.51l-1,.56c-3.62,2.06-3.18,5.7,1,8.12l204.86,119.7c4.15,2.43,10.44,2.72,14,.66l1-.56c3.61-2.06,3.18-5.7-1-8.12L416.53,182.17C412.38,179.75,406.09,179.45,402.48,181.51Z" transform="translate(-309.74 -76.23)"/></g><g class="cls-32"><path class="cls-33" d="M445,175.92l-1,.56c-3.62,2.06-3.18,5.69,1,8.12l76.76,44.85c4.15,2.43,10.45,2.72,14.06.66l1-.56c3.61-2.06,3.18-5.7-1-8.12l-76.77-44.85C454.92,174.15,448.63,173.86,445,175.92Z" transform="translate(-309.74 -76.23)"/></g><path class="cls-34" d="M486.1,378.73a13,13,0,0,1-6.54-1.75L341.47,297.25a3.21,3.21,0,0,1,0-5.56L428,241.76l.67.39,144,83.11a3.22,3.22,0,0,1,0,5.57L492.64,377A13,13,0,0,1,486.1,378.73ZM428,244.86,342.81,294a.54.54,0,0,0,0,.92L480.9,374.66a10.44,10.44,0,0,0,10.4,0l79.93-46.15a.51.51,0,0,0,.27-.46.49.49,0,0,0-.27-.46Z" transform="translate(-309.74 -76.23)"/><path class="cls-35" d="M427.77,208.82,447,94.68,445.46,94l2.32-1.34v0a1.68,1.68,0,0,1,1.79.12L603.32,181.6a4.34,4.34,0,0,1,2,3.91l-19.39,115a1.43,1.43,0,0,1-.81,1.17h0L582.85,303l-.39-2.13.13,0L429.76,212.72A4.34,4.34,0,0,1,427.77,208.82Z" transform="translate(-309.74 -76.23)"/><path class="cls-36" d="M602.47,184.72,605,183.6a3.42,3.42,0,0,1,.33,1.91l-19.39,115a1.43,1.43,0,0,1-.81,1.17h0L582.85,303l-.39-2.13.13,0-7.74-4.46Z" transform="translate(-309.74 -76.23)"/><path class="cls-37" d="M427.35,214.11,581.1,302.87c1.19.69,2.21.29,2.42-.94l19.39-115a4.36,4.36,0,0,0-2-3.91L447.16,94.22c-1.19-.69-2.2-.29-2.41.94l-19.39,115A4.33,4.33,0,0,0,427.35,214.11Z" transform="translate(-309.74 -76.23)"/><g class="cls-38"><polygon class="cls-39" points="139.43 25.33 287.63 110.89 269.25 219.24 121.15 133.73 139.43 25.33"/></g><path class="cls-40" d="M330.7,268.57l8.39,4.38,84.14-48.57a6.07,6.07,0,0,1,5.49.23l145.12,83.78c1.38-.78,7.72-3.83,7.72-3.83l-3.08,8h0a1.84,1.84,0,0,1-.86.95L489,364.67a6.1,6.1,0,0,1-5.49-.23L335,278.71a2.63,2.63,0,0,1-1.24-1.33h0Z" transform="translate(-309.74 -76.23)"/><path class="cls-41" d="M332,270l152.19,87.87a6.27,6.27,0,0,0,5.63.23l90.81-52.43c1.45-.84,1.27-2.29-.4-3.25L428,214.5a6.27,6.27,0,0,0-5.63-.23L331.6,266.7C330.15,267.53,330.34,269,332,270Z" transform="translate(-309.74 -76.23)"/><path class="cls-42" d="M530.09,338.81v-1.67c0-.16-.09-.23-.21-.16l-5.89,3.4a.51.51,0,0,0-.21.41v1.67c0,.16.09.23.21.16l5.89-3.4A.51.51,0,0,0,530.09,338.81Z" transform="translate(-309.74 -76.23)"/><path class="cls-42" d="M521.29,343.89v-1.67c0-.15-.1-.23-.21-.16l-5.89,3.4a.51.51,0,0,0-.21.41v1.67c0,.16.09.23.21.16l5.89-3.4A.52.52,0,0,0,521.29,343.89Z" transform="translate(-309.74 -76.23)"/><path class="cls-43" d="M557,300.71l-126.47-73a2.72,2.72,0,0,0-2.73,0l-45,26.06a1,1,0,0,0,0,1.68l126.41,73a2.7,2.7,0,0,0,2.72,0l45.1-26A1,1,0,0,0,557,300.71Z" transform="translate(-309.74 -76.23)"/><path class="cls-44" d="M557,302.39l-.46.26-126-72.75a2.72,2.72,0,0,0-2.73,0l-44.58,25.79-.45-.26a1,1,0,0,1,0-1.68l45-26.06a2.72,2.72,0,0,1,2.73,0l126.47,73A1,1,0,0,1,557,302.39Z" transform="translate(-309.74 -76.23)"/><polygon class="cls-37" points="114.63 158.06 224.48 221.48 229.37 218.66 119.51 155.24 114.63 158.06"/><polygon class="cls-37" points="102.65 164.97 205.69 224.46 210.58 221.64 107.53 162.15 102.65 164.97"/><polygon class="cls-37" points="94.85 169.48 216.17 239.52 221.06 236.7 99.73 166.66 94.85 169.48"/><polygon class="cls-37" points="87.05 173.98 208.37 244.02 213.25 241.2 91.94 171.16 87.05 173.98"/><polygon class="cls-37" points="79.25 178.48 200.57 248.53 205.46 245.71 84.14 175.66 79.25 178.48"/><polygon class="cls-37" points="231.12 225.32 236 228.14 240.89 225.32 236 222.5 231.12 225.32"/><polygon class="cls-37" points="213.89 229.2 224.03 235.05 228.91 232.23 218.78 226.38 213.89 229.2"/><path class="cls-45" d="M425.62,318.38l-34.1-19.69c-1.33-.77-1.33-2,0-2.79l23.32-13.46a5.32,5.32,0,0,1,4.82,0l34.1,19.69c1.34.77,1.34,2,0,2.78l-23.31,13.47A5.34,5.34,0,0,1,425.62,318.38Z" transform="translate(-309.74 -76.23)"/><path class="cls-44" d="M453.76,303.27l-34.1-19.69a5.32,5.32,0,0,0-4.82,0L391.52,297a2.15,2.15,0,0,0-.84.83c-.35-.68-.08-1.44.84-2l23.32-13.46a5.32,5.32,0,0,1,4.82,0l34.1,19.69c.93.53,1.2,1.29.84,2A2,2,0,0,0,453.76,303.27Z" transform="translate(-309.74 -76.23)"/><g class="cls-46"><g class="cls-47"><path class="cls-48" d="M427.89,214.32l152.19,87.87a6.27,6.27,0,0,0,5.63.23L676.53,250c1.44-.84,1.26-2.29-.41-3.25L523.93,158.87a6.27,6.27,0,0,0-5.63-.23l-90.81,52.43C426.05,211.9,426.23,213.36,427.89,214.32Z" transform="translate(-309.74 -76.23)"/><path class="cls-49" d="M580.53,230.07l-34.1-19.68c-1.33-.77-1.33-2,0-2.79l23.32-13.46a5.34,5.34,0,0,1,4.83,0l34.1,19.68c1.33.77,1.33,2,0,2.79l-23.32,13.46A5.34,5.34,0,0,1,580.53,230.07Z" transform="translate(-309.74 -76.23)"/><path class="cls-44" d="M608.68,215l-34.1-19.68a5.34,5.34,0,0,0-4.83,0l-23.32,13.46a2,2,0,0,0-.83.82c-.36-.67-.09-1.43.83-2l23.32-13.46a5.34,5.34,0,0,1,4.83,0l34.1,19.68c.92.54,1.19,1.3.84,2A2.15,2.15,0,0,0,608.68,215Z" transform="translate(-309.74 -76.23)"/><path class="cls-43" d="M623.67,260.84l-126.47-73a2.7,2.7,0,0,0-2.72,0l-45,26a1,1,0,0,0,0,1.68l126.41,73a2.75,2.75,0,0,0,2.72,0l45.1-26A1,1,0,0,0,623.67,260.84Z" transform="translate(-309.74 -76.23)"/><path class="cls-44" d="M623.67,262.52l-.45.27L497.2,190a2.7,2.7,0,0,0-2.72,0l-44.59,25.8-.45-.27a1,1,0,0,1,0-1.68l45-26a2.7,2.7,0,0,1,2.72,0l126.47,73A1,1,0,0,1,623.67,262.52Z" transform="translate(-309.74 -76.23)"/><polygon class="cls-37" points="151.49 135.87 261.66 199.48 257.3 202 147.12 138.39 151.49 135.87"/><polygon class="cls-37" points="163.09 129.17 267.82 189.63 263.45 192.15 158.73 131.69 163.09 129.17"/><polygon class="cls-37" points="275.64 194.15 285.42 199.79 281.05 202.31 271.27 196.67 275.64 194.15"/><polygon class="cls-37" points="267 202.56 273.81 206.5 269.44 209.02 262.63 205.08 267 202.56"/><polygon class="cls-37" points="170.37 124.97 292.69 195.59 288.33 198.11 166 127.49 170.37 124.97"/><polygon class="cls-37" points="177.64 120.77 299.96 191.4 295.6 193.91 173.28 123.29 177.64 120.77"/><polygon class="cls-37" points="184.92 116.57 307.24 187.19 302.87 189.72 180.55 119.09 184.92 116.57"/></g></g><polygon class="cls-50" points="273.93 117.31 276.86 119.18 277.21 117.01 274.29 115.14 273.93 117.31"/><polygon class="cls-50" points="271.54 131.98 274.46 133.85 276.53 121.15 273.61 119.28 271.54 131.98"/><polygon class="cls-50" points="270.39 139 273.31 140.86 274.14 135.82 271.21 133.96 270.39 139"/><polygon class="cls-50" points="269.2 146.27 272.13 148.13 272.95 143.1 270.03 141.23 269.2 146.27"/><polygon class="cls-50" points="268.43 121.54 271.35 123.41 272.18 118.37 269.25 116.5 268.43 121.54"/><polygon class="cls-50" points="266.86 131.17 269.78 133.04 270.99 125.64 268.06 123.77 266.86 131.17"/><polygon class="cls-50" points="265.41 140.03 268.33 141.9 269.37 135.56 266.44 133.69 265.41 140.03"/><polygon class="cls-50" points="268.02 153.54 270.94 155.41 271.76 150.37 268.84 148.5 268.02 153.54"/><polygon class="cls-50" points="269.57 114.52 272.5 116.39 272.85 114.22 269.93 112.35 269.57 114.52"/><polygon class="cls-50" points="264.69 159.2 269.79 162.46 270.13 160.36 265.03 157.1 264.69 159.2"/><polygon class="cls-51" points="166.1 10.17 153.34 2.8 153.34 0 166.1 7.37 166.1 10.17"/><polygon class="cls-51" points="172.65 13.95 168.05 11.29 168.05 8.49 172.65 11.14 172.65 13.95"/><polygon class="cls-51" points="177.72 16.87 174.6 15.07 174.6 12.27 177.72 14.07 177.72 16.87"/><polygon class="cls-51" points="160.3 13.22 153.34 9.2 153.34 6.4 160.3 10.41 160.3 13.22"/><polygon class="cls-51" points="170.77 19.26 162.25 14.34 162.25 11.54 170.77 16.46 170.77 19.26"/><polygon class="cls-51" points="175.84 22.19 172.72 20.39 172.72 17.58 175.84 19.39 175.84 22.19"/><polygon class="cls-51" points="180.66 24.98 177.54 23.17 177.54 20.37 180.66 22.17 180.66 24.98"/><polygon class="cls-50" points="158.38 18.51 153.34 15.6 153.34 12.8 158.38 15.71 158.38 18.51"/><polygon class="cls-50" points="162.04 20.63 160.32 19.63 160.32 16.83 162.04 17.82 162.04 20.63"/><polygon class="cls-51" points="167.12 23.55 163.99 21.75 163.99 18.95 167.12 20.75 167.12 23.55"/><polygon class="cls-51" points="171.91 32.72 153.34 22 153.34 19.2 171.91 29.92 171.91 32.72"/><polygon class="cls-51" points="178.45 36.5 173.86 33.85 173.86 31.05 178.45 33.7 178.45 36.5"/><polygon class="cls-51" points="158.38 31.31 153.34 28.41 153.34 25.6 158.38 28.51 158.38 31.31"/><polygon class="cls-51" points="170.18 38.13 160.32 32.44 160.32 29.63 170.18 35.32 170.18 38.13"/><polygon class="cls-51" points="175.25 41.05 172.13 39.25 172.13 36.45 175.25 38.25 175.25 41.05"/><polygon class="cls-51" points="163.64 40.75 153.34 34.81 153.34 32 163.64 37.95 163.64 40.75"/><polygon class="cls-50" points="173.03 46.17 165.59 41.87 165.59 39.07 173.03 43.37 173.03 46.17"/><polygon class="cls-51" points="180.01 50.2 174.98 47.3 174.98 44.49 180.01 47.4 180.01 50.2"/><polygon class="cls-51" points="156.82 43.21 153.34 41.21 153.34 38.41 156.82 40.41 156.82 43.21"/><polygon class="cls-51" points="163.36 46.99 158.77 44.34 158.77 41.54 163.36 44.19 163.36 46.99"/><polygon class="cls-51" points="172.72 52.39 165.31 48.12 165.31 45.31 172.72 49.59 172.72 52.39"/><polygon class="cls-51" points="163.99 53.76 153.34 47.61 153.34 44.8 163.99 50.95 163.99 53.76"/><polygon class="cls-51" points="175.92 60.64 165.94 54.88 165.94 52.08 175.92 57.84 175.92 60.64"/><polygon class="cls-50" points="180.99 63.57 177.87 61.77 177.87 58.96 180.99 60.77 180.99 63.57"/><polygon class="cls-51" points="185.86 66.38 182.74 64.58 182.74 61.77 185.86 63.58 185.86 66.38"/><polygon class="cls-51" points="159.72 57.69 153.34 54.01 153.34 51.21 159.72 54.89 159.72 57.69"/><polygon class="cls-50" points="186.41 21.89 195.25 27 195.25 24.2 186.41 19.09 186.41 21.89"/><polygon class="cls-51" points="188.3 29.38 195.25 33.4 195.25 30.6 188.3 26.58 188.3 29.38"/><polygon class="cls-51" points="190.22 36.9 195.25 39.8 195.25 37 190.22 34.09 190.22 36.9"/><polygon class="cls-51" points="187.94 41.98 195.25 46.2 195.25 43.4 187.94 39.17 187.94 41.98"/><polygon class="cls-51" points="190.22 49.7 195.25 52.6 195.25 49.8 190.22 46.89 190.22 49.7"/><polygon class="cls-51" points="188.87 55.32 195.25 59 195.25 56.2 188.87 52.52 188.87 55.32"/><polygon class="cls-51" points="191.78 63.4 195.25 65.4 195.25 62.6 191.78 60.59 191.78 63.4"/><polygon class="cls-51" points="188.52 67.91 195.25 71.8 195.25 69 188.52 65.11 188.52 67.91"/><polygon class="cls-51" points="188.87 74.52 195.25 78.2 195.25 75.4 188.87 71.72 188.87 74.52"/><polygon class="cls-51" points="164.39 60.38 161.67 58.82 161.67 56.02 164.39 57.58 164.39 60.38"/><polygon class="cls-51" points="172.44 65.03 166.34 61.51 166.34 58.71 172.44 62.23 172.44 65.03"/><polygon class="cls-51" points="215.58 38.63 202.82 31.26 202.82 28.46 215.58 35.82 215.58 38.63"/><polygon class="cls-51" points="222.13 42.4 217.53 39.75 217.53 36.95 222.13 39.6 222.13 42.4"/><polygon class="cls-50" points="227.2 45.33 224.07 43.53 224.07 40.73 227.2 42.53 227.2 45.33"/><polygon class="cls-51" points="209.78 41.67 202.82 37.66 202.82 34.86 209.78 38.87 209.78 41.67"/><polygon class="cls-51" points="220.24 47.72 211.72 42.8 211.72 40 220.24 44.91 220.24 47.72"/><polygon class="cls-50" points="225.31 50.65 222.19 48.84 222.19 46.04 225.31 47.84 225.31 50.65"/><polygon class="cls-51" points="230.14 53.43 227.02 51.63 227.02 48.83 230.14 50.63 230.14 53.43"/><polygon class="cls-51" points="207.85 46.96 202.82 44.06 202.82 41.26 207.85 44.16 207.85 46.96"/><polygon class="cls-51" points="211.52 49.08 209.8 48.09 209.8 45.29 211.52 46.28 211.52 49.08"/><polygon class="cls-51" points="216.59 52.01 213.47 50.21 213.47 47.41 216.59 49.21 216.59 52.01"/><polygon class="cls-51" points="221.39 61.18 202.82 50.46 202.82 47.66 221.39 58.38 221.39 61.18"/><polygon class="cls-51" points="227.93 64.96 223.34 62.3 223.34 59.5 227.93 62.16 227.93 64.96"/><polygon class="cls-51" points="207.85 59.77 202.82 56.86 202.82 54.06 207.85 56.96 207.85 59.77"/><polygon class="cls-51" points="219.66 66.58 209.8 60.89 209.8 58.09 219.66 63.78 219.66 66.58"/><polygon class="cls-51" points="224.73 69.51 221.61 67.71 221.61 64.9 224.73 66.71 224.73 69.51"/><polygon class="cls-50" points="213.12 69.2 202.82 63.26 202.82 60.46 213.12 66.4 213.12 69.2"/><polygon class="cls-51" points="222.51 74.63 215.06 70.33 215.06 67.53 222.51 71.83 222.51 74.63"/><polygon class="cls-51" points="229.49 78.66 224.46 75.75 224.46 72.95 229.49 75.85 229.49 78.66"/><polygon class="cls-51" points="206.3 71.67 202.82 69.66 202.82 66.86 206.3 68.87 206.3 71.67"/><polygon class="cls-51" points="212.84 75.45 208.25 72.8 208.25 69.99 212.84 72.64 212.84 75.45"/><polygon class="cls-50" points="222.19 80.85 214.79 76.57 214.79 73.77 222.19 78.04 222.19 80.85"/><polygon class="cls-51" points="213.47 82.21 202.82 76.06 202.82 73.26 213.47 79.41 213.47 82.21"/><polygon class="cls-51" points="225.4 89.1 215.42 83.34 215.42 80.53 225.4 86.29 225.4 89.1"/><polygon class="cls-51" points="230.47 92.02 227.35 90.22 227.35 87.42 230.47 89.22 230.47 92.02"/><polygon class="cls-51" points="235.33 94.83 232.21 93.03 232.21 90.23 235.33 92.03 235.33 94.83"/><polygon class="cls-51" points="209.2 86.15 202.82 82.46 202.82 79.66 209.2 83.35 209.2 86.15"/><polygon class="cls-50" points="235.88 50.35 244.73 55.45 244.73 52.65 235.88 47.54 235.88 50.35"/><polygon class="cls-51" points="237.78 57.84 244.73 61.85 244.73 59.05 237.78 55.04 237.78 57.84"/><polygon class="cls-51" points="239.7 65.35 244.73 68.25 244.73 65.45 239.7 62.55 239.7 65.35"/><polygon class="cls-51" points="237.41 70.43 244.73 74.66 244.73 71.85 237.41 67.63 237.41 70.43"/><polygon class="cls-51" points="239.7 78.15 244.73 81.06 244.73 78.25 239.7 75.35 239.7 78.15"/><polygon class="cls-51" points="238.35 83.77 244.73 87.46 244.73 84.66 238.35 80.97 238.35 83.77"/><polygon class="cls-51" points="241.25 91.85 244.73 93.86 244.73 91.06 241.25 89.05 241.25 91.85"/><polygon class="cls-51" points="237.99 96.37 244.73 100.26 244.73 97.46 237.99 93.57 237.99 96.37"/><polygon class="cls-51" points="238.35 102.98 244.73 106.66 244.73 103.86 238.35 100.17 238.35 102.98"/><polygon class="cls-50" points="213.86 88.84 211.15 87.27 211.15 84.47 213.86 86.04 213.86 88.84"/><polygon class="cls-51" points="221.92 93.49 215.81 89.97 215.81 87.16 221.92 90.69 221.92 93.49"/><polygon class="cls-51" points="166.1 67.81 153.34 60.45 153.34 57.64 166.1 65.01 166.1 67.81"/><polygon class="cls-51" points="172.65 71.59 168.05 68.94 168.05 66.14 172.65 68.79 172.65 71.59"/><polygon class="cls-51" points="177.72 74.52 174.6 72.72 174.6 69.91 177.72 71.72 177.72 74.52"/><polygon class="cls-51" points="160.3 70.86 153.34 66.85 153.34 64.05 160.3 68.06 160.3 70.86"/><polygon class="cls-51" points="170.77 76.91 162.25 71.99 162.25 69.18 170.77 74.1 170.77 76.91"/><polygon class="cls-51" points="175.84 79.83 172.72 78.03 172.72 75.23 175.84 77.03 175.84 79.83"/><polygon class="cls-51" points="180.66 82.62 177.54 80.82 177.54 78.01 180.66 79.82 180.66 82.62"/><polygon class="cls-51" points="158.38 76.15 153.34 73.25 153.34 70.45 158.38 73.35 158.38 76.15"/><polygon class="cls-51" points="162.04 78.27 160.32 77.28 160.32 74.47 162.04 75.47 162.04 78.27"/><polygon class="cls-51" points="167.12 81.2 163.99 79.39 163.99 76.59 167.12 78.39 167.12 81.2"/><polygon class="cls-51" points="171.91 90.37 153.34 79.65 153.34 76.85 171.91 87.57 171.91 90.37"/><polygon class="cls-51" points="178.45 94.14 173.86 91.49 173.86 88.69 178.45 91.34 178.45 94.14"/><polygon class="cls-51" points="158.38 88.95 153.34 86.05 153.34 83.25 158.38 86.15 158.38 88.95"/><polygon class="cls-51" points="170.18 95.77 160.32 90.08 160.32 87.28 170.18 92.97 170.18 95.77"/><polygon class="cls-51" points="175.25 98.7 172.13 96.89 172.13 94.09 175.25 95.89 175.25 98.7"/><polygon class="cls-51" points="163.64 98.39 153.34 92.45 153.34 89.65 163.64 95.59 163.64 98.39"/><polygon class="cls-51" points="173.03 103.81 165.59 99.52 165.59 96.72 173.03 101.01 173.03 103.81"/><polygon class="cls-51" points="180.01 107.84 174.98 104.94 174.98 102.14 180.01 105.04 180.01 107.84"/><polygon class="cls-51" points="156.82 100.86 153.34 98.85 153.34 96.05 156.82 98.06 156.82 100.86"/><polygon class="cls-51" points="163.36 104.64 158.77 101.98 158.77 99.18 163.36 101.83 163.36 104.64"/><polygon class="cls-51" points="172.72 110.03 165.31 105.76 165.31 102.96 172.72 107.23 172.72 110.03"/><polygon class="cls-51" points="163.99 111.4 153.34 105.25 153.34 102.45 163.99 108.6 163.99 111.4"/><polygon class="cls-51" points="175.92 118.28 165.94 112.52 165.94 109.72 175.92 115.48 175.92 118.28"/><polygon class="cls-51" points="180.99 121.21 177.87 119.41 177.87 116.61 180.99 118.41 180.99 121.21"/><polygon class="cls-51" points="185.86 124.02 182.74 122.22 182.74 119.42 185.86 121.22 185.86 124.02"/><polygon class="cls-51" points="159.72 115.33 153.34 111.65 153.34 108.85 159.72 112.53 159.72 115.33"/><polygon class="cls-51" points="186.41 79.53 195.25 84.64 195.25 81.84 186.41 76.73 186.41 79.53"/><polygon class="cls-51" points="188.3 87.03 195.25 91.04 195.25 88.24 188.3 84.23 188.3 87.03"/><polygon class="cls-51" points="190.22 94.54 195.25 97.44 195.25 94.64 190.22 91.74 190.22 94.54"/><polygon class="cls-51" points="187.94 99.62 195.25 103.84 195.25 101.04 187.94 96.82 187.94 99.62"/><polygon class="cls-51" points="190.22 107.34 195.25 110.24 195.25 107.44 190.22 104.54 190.22 107.34"/><polygon class="cls-51" points="188.87 112.96 195.25 116.64 195.25 113.84 188.87 110.16 188.87 112.96"/><polygon class="cls-51" points="191.78 121.04 195.25 123.05 195.25 120.24 191.78 118.24 191.78 121.04"/><polygon class="cls-51" points="188.52 125.56 195.25 129.45 195.25 126.64 188.52 122.76 188.52 125.56"/><polygon class="cls-51" points="188.87 132.16 195.25 135.85 195.25 133.04 188.87 129.36 188.87 132.16"/><polygon class="cls-51" points="164.39 118.03 161.67 116.46 161.67 113.66 164.39 115.22 164.39 118.03"/><polygon class="cls-51" points="172.44 122.68 166.34 119.15 166.34 116.35 172.44 119.88 172.44 122.68"/><polygon class="cls-51" points="177.5 144.21 167.19 138.26 167.19 135.46 177.5 141.41 177.5 144.21"/><polygon class="cls-51" points="184.55 148.28 180.49 145.94 180.49 143.14 184.55 145.48 184.55 148.28"/><polygon class="cls-51" points="215.58 96.27 202.82 88.9 202.82 86.1 215.58 93.47 215.58 96.27"/><polygon class="cls-51" points="222.13 100.05 217.53 97.39 217.53 94.59 222.13 97.24 222.13 100.05"/><polygon class="cls-51" points="227.2 102.97 224.07 101.17 224.07 98.37 227.2 100.17 227.2 102.97"/><polygon class="cls-51" points="209.78 99.32 202.82 95.3 202.82 92.5 209.78 96.52 209.78 99.32"/><polygon class="cls-51" points="220.24 105.36 211.72 100.44 211.72 97.64 220.24 102.56 220.24 105.36"/><polygon class="cls-51" points="225.31 108.29 222.19 106.49 222.19 103.69 225.31 105.49 225.31 108.29"/><polygon class="cls-51" points="230.14 111.08 227.02 109.27 227.02 106.47 230.14 108.27 230.14 111.08"/><polygon class="cls-51" points="207.85 104.61 202.82 101.7 202.82 98.9 207.85 101.81 207.85 104.61"/><polygon class="cls-51" points="211.52 106.73 209.8 105.73 209.8 102.93 211.52 103.92 211.52 106.73"/><polygon class="cls-51" points="216.59 109.65 213.47 107.85 213.47 105.05 216.59 106.85 216.59 109.65"/><polygon class="cls-51" points="221.39 118.82 202.82 108.11 202.82 105.3 221.39 116.02 221.39 118.82"/><polygon class="cls-51" points="227.93 122.6 223.34 119.95 223.34 117.15 227.93 119.8 227.93 122.6"/><polygon class="cls-51" points="207.85 117.41 202.82 114.5 202.82 111.7 207.85 114.61 207.85 117.41"/><polygon class="cls-51" points="219.66 124.22 209.8 118.53 209.8 115.73 219.66 121.42 219.66 124.22"/><polygon class="cls-51" points="224.73 127.15 221.61 125.35 221.61 122.55 224.73 124.35 224.73 127.15"/><polygon class="cls-51" points="213.12 126.85 202.82 120.91 202.82 118.1 213.12 124.05 213.12 126.85"/><polygon class="cls-51" points="222.51 132.27 215.06 127.97 215.06 125.17 222.51 129.47 222.51 132.27"/><polygon class="cls-51" points="229.49 136.3 224.46 133.4 224.46 130.59 229.49 133.5 229.49 136.3"/><polygon class="cls-51" points="206.3 129.31 202.82 127.31 202.82 124.5 206.3 126.51 206.3 129.31"/><polygon class="cls-51" points="212.84 133.09 208.25 130.44 208.25 127.64 212.84 130.29 212.84 133.09"/><polygon class="cls-51" points="222.19 138.49 214.79 134.22 214.79 131.41 222.19 135.69 222.19 138.49"/><polygon class="cls-51" points="213.47 139.85 202.82 133.71 202.82 130.91 213.47 137.05 213.47 139.85"/><polygon class="cls-51" points="225.4 146.74 215.42 140.98 215.42 138.18 225.4 143.94 225.4 146.74"/><polygon class="cls-51" points="230.47 149.67 227.35 147.87 227.35 145.06 230.47 146.87 230.47 149.67"/><polygon class="cls-51" points="235.33 152.48 232.21 150.68 232.21 147.87 235.33 149.68 235.33 152.48"/><polygon class="cls-51" points="209.2 143.79 202.82 140.11 202.82 137.31 209.2 140.99 209.2 143.79"/><polygon class="cls-51" points="235.88 107.99 244.73 113.1 244.73 110.3 235.88 105.19 235.88 107.99"/><polygon class="cls-51" points="237.78 115.48 244.73 119.5 244.73 116.7 237.78 112.68 237.78 115.48"/><polygon class="cls-51" points="239.7 123 244.73 125.9 244.73 123.1 239.7 120.19 239.7 123"/><polygon class="cls-51" points="237.41 128.07 244.73 132.3 244.73 129.5 237.41 125.27 237.41 128.07"/><polygon class="cls-51" points="239.7 135.8 244.73 138.7 244.73 135.9 239.7 132.99 239.7 135.8"/><polygon class="cls-51" points="238.35 141.42 244.73 145.1 244.73 142.3 238.35 138.62 238.35 141.42"/><polygon class="cls-51" points="241.25 149.5 244.73 151.5 244.73 148.7 241.25 146.69 241.25 149.5"/><polygon class="cls-51" points="237.99 154.01 244.73 157.9 244.73 155.1 237.99 151.21 237.99 154.01"/><polygon class="cls-51" points="238.35 160.62 244.73 164.3 244.73 161.5 238.35 157.82 238.35 160.62"/><polygon class="cls-51" points="213.86 146.48 211.15 144.92 211.15 142.12 213.86 143.68 213.86 146.48"/><polygon class="cls-51" points="221.92 151.13 215.81 147.61 215.81 144.81 221.92 148.33 221.92 151.13"/><polygon class="cls-51" points="226.97 172.66 216.67 166.72 216.67 163.91 226.97 169.86 226.97 172.66"/><polygon class="cls-51" points="234.03 176.74 229.97 174.4 229.97 171.59 234.03 173.94 234.03 176.74"/></svg>