<svg id="Capa_2" data-name="Capa 2" xmlns="http://www.w3.org/2000/svg" viewBox="0 0 1179.02 833.51">
  <defs>
    <style>
      .cls-1 {
        fill: #0b78c1;
      }

      .cls-2 {
        fill: #7a7a7a;
      }

      .cls-3 {
        fill: #b8b8b8;
      }
    </style>
  </defs>
  <path class="cls-1"
    d="M532.55,489.74q-13.95,30.42-46.86,49.15,33.82,18.75,47.32,50.29t13.49,78.17V785.3q0,48.47,18.74,69.26t53.49,21.71v80.46q-86.86.91-128.24-42.74T449.12,791.7V687q0-58.05-18.51-82.75T370.49,578.2V500.49q41.14-.92,59.89-25.61t18.74-82.74V287.45q0-85.95,44.57-125.95t125-38.17v80.46q-40.23.92-56.23,24t-16,66.06v118Q546.5,459.35,532.55,489.74Z"
    transform="translate(-370.49 -123.25)" />
  <path class="cls-1"
    d="M1489.62,474.88q18.75,24.69,59.89,25.61V578.2q-41.15.93-59.89,25.83t-18.74,83V791.7q0,78.63-41.14,122.29t-127.55,42.74V876.27q35.65-1.83,53.48-23.08t17.83-67.89V667.35q0-46.64,14.18-78.17t47.54-50.29q-33.84-18.75-47.77-49.15t-14-77.94V293.85q0-44.81-16.91-67t-54.4-23.08V123.33q79.55-1.83,124.12,37.94t44.57,126.18V392.14Q1470.88,450.21,1489.62,474.88Z"
    transform="translate(-370.49 -123.25)" />
  <ellipse class="cls-2" cx="590.69" cy="625.66" rx="231.33" ry="57.83" />
  <rect class="cls-2" x="359.36" y="513.53" width="462.65" height="110.94" />
  <ellipse class="cls-3" cx="590.69" cy="514.71" rx="231.33" ry="57.83" />
  <ellipse class="cls-2" cx="590.69" cy="474.59" rx="231.33" ry="57.83" />
  <rect class="cls-2" x="359.36" y="362.46" width="462.65" height="110.94" />
  <ellipse class="cls-3" cx="590.69" cy="363.64" rx="231.33" ry="57.83" />
  <ellipse class="cls-2" cx="588.33" cy="318.79" rx="231.33" ry="57.83" />
  <rect class="cls-2" x="357" y="206.67" width="462.65" height="110.94" />
  <ellipse class="cls-3" cx="588.33" cy="207.85" rx="231.33" ry="57.83" />
</svg>