<svg id="Capa_6" data-name="Capa 6" xmlns="http://www.w3.org/2000/svg" viewBox="0 0 1623.21 276.93"><defs><style>.cls-1{fill:#050f16;}.cls-2{fill:#0b78c1;}.cls-3{fill:#7a7a7a;}.cls-4{fill:#b8b8b8;}</style></defs><path class="cls-1" d="M164.83,29.36h36.09l-11.43,82,87.23.3,11.73-82.26H324.7L297,226.82H260.63l11.73-84.07H184.83l-11.58,84.07H137.16Z" transform="translate(-137.16 -14.02)"/><path class="cls-1" d="M527.57,29.36,499.9,226.82H466.06L394.33,91.62l-19.1,135.2h-35.8L367.11,29.36h34l71.74,135.8,19.1-135.8Z" transform="translate(-137.16 -14.02)"/><path class="cls-1" d="M666.31,207.87a70.34,70.34,0,0,1-25,16.84,83.84,83.84,0,0,1-32.26,6.17q-20,0-35.26-8.65a59.33,59.33,0,0,1-23.54-24.06Q542,182.75,542,162.45q0-22.11,9.7-39.7a71.58,71.58,0,0,1,26.62-27.6,73,73,0,0,1,37.82-10q19.41,0,34.52,8.35a59.46,59.46,0,0,1,23.46,23.08q8.34,14.74,8.34,33.54a60.72,60.72,0,0,1-2.25,17.6H575.55q-.6,15.33,9.1,25t25.64,9.7a44.26,44.26,0,0,0,21-5A31.81,31.81,0,0,0,645.18,184h34.14A51.33,51.33,0,0,1,666.31,207.87Zm-18.73-63.31q0-14.15-8.57-22.64t-23.16-8.49q-14.43,0-24.59,8.34T579,144.56Z" transform="translate(-137.16 -14.02)"/><path class="cls-1" d="M790.46,117.79H764l-15.34,109H714.06l15.49-109H703.38l3.91-28.28h26.17l5-36.09H773l-5,36.09h26.16Z" transform="translate(-137.16 -14.02)"/><path class="cls-1" d="M825.42,54.92a61.61,61.61,0,0,1,25.72-21.8q16.32-7.68,36.92-7.67,20.3,0,36.17,7.52A61.68,61.68,0,0,1,949.34,54a57.4,57.4,0,0,1,9.85,31.13H923q-1.2-13.53-11.28-21.43t-25.12-7.89q-14.73,0-23.83,7.29A23.06,23.06,0,0,0,853.62,82q0,9.93,7.37,15.79t20.9,9.48l24.37,5.86q22.54,5.56,34.21,20.38t11.66,34.82q0,18.8-10,32.93T914.3,223.13q-17.82,7.76-40.08,7.75-21.19,0-38-7.6t-26.47-21.12A58.67,58.67,0,0,1,799,170.72h37.29A29.54,29.54,0,0,0,848.81,192q11,8.06,27.82,8.05,16.7,0,26.84-7.75t10.16-19.92q0-10.53-7.07-16.7t-18.2-8.57l-25-6.16q-23.76-5.56-35.56-19.78T816,87.26A57.06,57.06,0,0,1,825.42,54.92Z" transform="translate(-137.16 -14.02)"/><path class="cls-1" d="M985.29,122.6A72.11,72.11,0,0,1,1013.63,95a82.54,82.54,0,0,1,40.16-9.85q20.89,0,36.62,8.65a60,60,0,0,1,24.21,24.14q8.51,15.48,8.5,35.64,0,22.11-10.3,39.85a72.2,72.2,0,0,1-28.35,27.6q-18,9.84-40.46,9.85-20.9,0-36.54-8.65A59.42,59.42,0,0,1,983.41,198Q975,182.45,975,162.45,975,140.34,985.29,122.6Zm34.44,67q9.69,10.76,26.09,10.75,18.2,0,30.15-12.78t12-32.79q0-17.59-9.7-28.5t-25.94-10.9q-18.21,0-30.23,12.93t-12,32.94Q1010,178.84,1019.73,189.6Z" transform="translate(-137.16 -14.02)"/><path class="cls-1" d="M1325.39,117.79H1298l-15.49,109h-34.44l15.34-109h-60L1179.37,290h-34.14l24.06-172.19H1144l3.91-28.28h25l3.76-25.86Q1184,14,1234.56,14a76.43,76.43,0,0,1,16.54,1.5l-3.91,28.27q-2.7-.9-9.92-.9-10.83,0-16.47,4.21t-7.52,9.4a69.74,69.74,0,0,0-3.08,12.86l-2.71,20.15h60l8.28-60.15h34.59l-8.43,60.15h27.53Z" transform="translate(-137.16 -14.02)"/><path class="cls-2" d="M1425.83,137.31q-4.59,10-15.42,16.17,11.13,6.17,15.57,16.54t4.43,25.72v38.8q0,15.94,6.17,22.79t17.59,7.14v26.47q-28.58.3-42.18-14.06t-13.61-40.23V202.21q0-19.1-6.09-27.22t-19.78-8.57V140.85q13.54-.3,19.7-8.42t6.17-27.22V70.77q0-28.27,14.66-41.44t41.13-12.55V43.25q-13.23.3-18.49,7.89t-5.27,21.73v38.8Q1430.41,127.32,1425.83,137.31Z" transform="translate(-137.16 -14.02)"/><path class="cls-2" d="M1740.67,132.43q6.16,8.12,19.7,8.42v25.57q-13.53.3-19.7,8.49t-6.17,27.3v34.44q0,25.86-13.53,40.23t-42,14.06V264.47q11.73-.6,17.59-7.59t5.87-22.34v-38.8q0-15.35,4.66-25.72t15.64-16.54q-11.13-6.16-15.71-16.17t-4.59-25.64V72.87q0-14.73-5.57-22T1679,43.25V16.78q26.16-.6,40.83,12.48t14.66,41.51v34.44Q1734.5,124.31,1740.67,132.43Z" transform="translate(-137.16 -14.02)"/><ellipse class="cls-3" cx="1429.67" cy="208.55" rx="76.1" ry="19.02"/><rect class="cls-3" x="1353.57" y="171.67" width="152.2" height="36.5"/><ellipse class="cls-4" cx="1429.67" cy="172.06" rx="76.1" ry="19.02"/><ellipse class="cls-3" cx="1429.67" cy="158.86" rx="76.1" ry="19.02"/><rect class="cls-3" x="1353.57" y="121.97" width="152.2" height="36.5"/><ellipse class="cls-4" cx="1429.67" cy="122.36" rx="76.1" ry="19.02"/><ellipse class="cls-3" cx="1428.89" cy="107.61" rx="76.1" ry="19.02"/><rect class="cls-3" x="1352.8" y="70.72" width="152.2" height="36.5"/><ellipse class="cls-4" cx="1428.89" cy="71.11" rx="76.1" ry="19.02"/></svg>